<?xml version="1.0" encoding="UTF-8"?>
<svg version="1.1" xmlns="http://www.w3.org/2000/svg" width="500" height="500">
<path d="M0 0 C1.44091255 -0.0076664 1.44091255 -0.0076664 2.91093445 -0.01548767 C6.06056083 -0.02929492 9.20996624 -0.02843374 12.35961914 -0.02612305 C14.56482524 -0.03001453 16.77003059 -0.03435013 18.97523499 -0.03910828 C23.5873559 -0.0465512 28.19940024 -0.04629296 32.81152344 -0.04101562 C38.70351378 -0.03522032 44.59518985 -0.05216309 50.48712826 -0.0753603 C55.03835361 -0.09013507 59.58950389 -0.09096429 64.14074898 -0.08785057 C66.31232895 -0.08836179 68.48391335 -0.09356182 70.65546989 -0.10366249 C73.69890305 -0.11608375 76.74173181 -0.10920132 79.78515625 -0.09765625 C81.11262878 -0.10912186 81.11262878 -0.10912186 82.46691895 -0.12081909 C91.49253216 -0.04564477 99.60945987 1.8091843 106.19555664 8.20825195 C111.92032213 14.92310992 113.51255597 21.16991591 113.52368164 29.90356445 C112.08306933 38.47769151 107.06304141 45.60953094 102.39477539 52.7746582 C101.77344727 53.73952148 101.15211914 54.70438477 100.51196289 55.69848633 C98.66659228 58.5612738 96.81300877 61.41858056 94.95727539 64.2746582 C93.99989287 65.75359753 93.04282909 67.23274328 92.08618164 68.7121582 C90.77149847 70.74451282 89.45614015 72.77640697 88.13818359 74.80664062 C84.41667498 80.54393826 80.74694097 86.31342996 77.08227539 92.0871582 C72.5415094 99.24044517 67.96252784 106.36647377 63.33227539 113.4621582 C59.15331403 119.86658331 55.02730539 126.30046161 50.95727539 132.7746582 C46.92681659 139.18495034 42.84379509 145.55728987 38.70727539 151.8996582 C15.62389239 182.12821016 15.62389239 182.12821016 6.95727539 217.2746582 C8.66584843 224.95294426 12.11353645 231.92914212 17.95727539 237.2746582 C27.96832224 243.50696129 37.1176812 245.79789899 48.83618164 243.77856445 C64.83434511 239.75057735 75.50650509 230.69557548 84.08227539 216.7746582 C84.7091626 215.7863501 85.3360498 214.79804199 85.98193359 213.77978516 C87.30783772 211.68773011 88.62748464 209.59169754 89.94116211 207.49194336 C93.30461161 202.12459806 96.72766369 196.79543789 100.14477539 191.4621582 C100.8119458 190.42019287 101.47911621 189.37822754 102.16650391 188.3046875 C103.47385554 186.26386901 104.782021 184.2235716 106.09106445 182.18383789 C107.30090648 180.29785181 108.50871652 178.41056006 109.71411133 176.52172852 C111.30470892 174.03601354 112.90971463 171.56029635 114.51977539 169.0871582 C114.9718335 168.37519287 115.4238916 167.66322754 115.88964844 166.9296875 C120.10530884 160.51624515 125.33152078 155.08703974 132.79711914 152.68481445 C139.89847513 151.33645572 146.42949532 153.2400113 152.68774414 156.6105957 C157.34972605 160.0288475 160.15078733 164.85519403 161.95727539 170.2746582 C162.0723598 172.55643535 162.12671682 174.84141918 162.15014648 177.12597656 C162.16241272 178.16573639 162.16241272 178.16573639 162.17492676 179.22650146 C162.19974897 181.52249301 162.21629672 183.81842243 162.23071289 186.11450195 C162.23603657 186.90214998 162.24136024 187.68979801 162.24684525 188.50131416 C162.27357472 192.67778677 162.29294233 196.85422964 162.30737305 201.03076172 C162.32065945 204.46918657 162.34841278 207.90701051 162.3894043 211.34521484 C162.43906716 215.51144921 162.46353592 219.6771427 162.47060013 223.84366035 C162.47726195 225.42193062 162.49234967 227.00019125 162.51649094 228.57829094 C162.68760617 240.45011639 161.3136749 251.7053303 152.75805664 260.74731445 C145.74308161 266.69710889 137.9663587 270.5085402 128.69784546 270.54881287 C127.46164459 270.55878799 126.22544373 270.56876312 124.95178223 270.57904053 C123.59472669 270.57993619 122.23767099 270.58059983 120.88061523 270.58105469 C119.44108656 270.58868245 118.00156194 270.597111 116.56204224 270.60627747 C112.66088183 270.62817405 108.75979979 270.63701532 104.85858488 270.64210391 C102.41649296 270.64575452 99.97442134 270.65199836 97.53233719 270.6591053 C88.99868118 270.68358716 80.46508581 270.69664806 71.93139648 270.70019531 C64.0004053 270.70382518 56.06980238 270.73368417 48.13892972 270.7755999 C41.31233739 270.81040307 34.48587305 270.82574551 27.65919268 270.82644135 C23.58984622 270.82723104 19.52089519 270.83582585 15.45164108 270.86443901 C11.61827822 270.89079108 7.78563373 270.89273085 3.95222092 270.87678337 C2.5543154 270.87498212 1.15636693 270.88153845 -0.24144745 270.89760208 C-11.4406541 271.01833622 -22.0977756 269.04026399 -30.51538086 261.07543945 C-37.34885806 253.01857759 -40.34972349 244.84822839 -40.31015015 234.42022705 C-40.31468126 233.54010885 -40.31921237 232.65999065 -40.32388079 231.7532022 C-40.33652022 228.8101052 -40.3349047 225.86719337 -40.33325195 222.92407227 C-40.33923753 220.81135826 -40.34604314 218.69864644 -40.35360718 216.5859375 C-40.37127247 210.85025539 -40.37596282 205.11463296 -40.37723875 199.37892628 C-40.37866073 195.79376671 -40.38293124 192.20862229 -40.38823318 188.62346649 C-40.40673596 176.11102841 -40.41490358 163.59863294 -40.41333008 151.08618164 C-40.41212896 139.43119012 -40.43322501 127.77638387 -40.4648174 116.12143922 C-40.49098963 106.10849712 -40.50169696 96.09561549 -40.50041926 86.08263946 C-40.49990986 80.10532223 -40.50558087 74.12816963 -40.52677536 68.15088654 C-40.54617323 62.52671657 -40.54627137 56.90286798 -40.5317421 51.27868652 C-40.52965477 49.2188037 -40.5343503 47.15890069 -40.54646301 45.09905243 C-40.62657106 30.52804871 -39.93432098 20.43633613 -29.40209961 9.47387695 C-20.70083211 1.3632584 -11.58228219 -0.03234944 0 0 Z " fill="#22FEEA" transform="translate(194.042724609375,122.725341796875)"/>
<path d="M0 0 C0.99 0.495 0.99 0.495 2 1 C2.11648043 9.78912209 2.20500941 18.57797349 2.25906086 27.36770248 C2.28501911 31.45033013 2.32016008 35.53242498 2.37719727 39.61474609 C2.43201558 43.56352124 2.46152374 47.51178796 2.47438622 51.46091461 C2.48353778 52.95826458 2.50140579 54.45559059 2.52865028 55.95272064 C2.73234541 67.62332669 1.15641257 78.6420278 -7.19921875 87.47265625 C-15.93642056 94.88316798 -24.37387738 97.30869294 -35.59521484 97.22705078 C-37.17660751 97.22748886 -37.17660751 97.22748886 -38.78994751 97.22793579 C-42.26369547 97.22654596 -45.73722715 97.21100086 -49.2109375 97.1953125 C-51.62374759 97.19158114 -54.03655919 97.18873475 -56.44937134 97.18673706 C-62.79185183 97.1791103 -69.13424035 97.15946991 -75.47668457 97.1373291 C-81.95189164 97.11685013 -88.42711361 97.10773095 -94.90234375 97.09765625 C-107.60160168 97.07622321 -120.30079594 97.04248458 -133 97 C-133.33 96.34 -133.66 95.68 -134 95 C-97.7 94.67 -61.4 94.34 -24 94 C-23.505 92.515 -23.505 92.515 -23 91 C-22.29875 90.87625 -21.5975 90.7525 -20.875 90.625 C-17.82343613 89.96161655 -14.94659062 89.02788045 -12 88 C-12 87.34 -12 86.68 -12 86 C-11.278125 85.319375 -10.55625 84.63875 -9.8125 83.9375 C-5.12506494 79.43702816 -1.83255496 73.45230092 -1 67 C-0.95236931 63.97247397 -0.95803153 60.96392394 -1 57.9375 C-1.09357843 45.47349124 -0.79724954 33.02216851 -0.5 20.5625 C-0.47599121 19.55041473 -0.45198242 18.53832947 -0.42724609 17.49557495 C-0.28833255 11.66362754 -0.14570734 5.83178146 0 0 Z " fill="#2CFFCF" transform="translate(354,296)"/>
<path d="M0 0 C0.66 0 1.32 0 2 0 C2.13106314 14.00458025 2.26147503 28.00916645 2.39115143 42.01375961 C2.45139172 48.51747664 2.51183569 55.02119163 2.57275391 61.52490234 C2.63159628 67.80780855 2.68989216 74.09071962 2.74781799 80.37363434 C2.76995098 82.76405262 2.79227692 85.15446913 2.81480408 87.54488373 C2.84645656 90.90719655 2.87740691 94.26951518 2.90820312 97.63183594 C2.91755386 98.60792313 2.9269046 99.58401031 2.9365387 100.5896759 C2.9899683 106.51825204 3.00165277 112.44531914 2.9784317 118.3741188 C3.01638961 122.99538997 3.46749296 127.56232866 3.87890625 132.1640625 C3.97063893 135.0699172 3.86819846 137.4606893 3.51367188 140.30371094 C2.79385278 147.18745401 2.87533664 154.0633178 2.90234375 160.9765625 C2.90421313 162.39716542 2.90563457 163.817769 2.90663147 165.2383728 C2.91041575 168.94380532 2.92021018 172.64919748 2.93133545 176.35461426 C2.94163841 180.14916437 2.94614796 183.94372112 2.95117188 187.73828125 C2.96183689 195.15887239 2.97886301 202.5794305 3 210 C2.34 209.67 1.68 209.34 1 209 C0.00203459 185.93229906 -0.1363322 162.89884222 -0.10139394 139.81287432 C-0.09502873 134.87625812 -0.09454642 129.93964091 -0.09336853 125.00302124 C-0.09029322 115.70732311 -0.08213256 106.41163712 -0.07201904 97.11594427 C-0.06073796 86.51085709 -0.05531762 75.90576925 -0.05032361 65.30067754 C-0.03994555 43.53377832 -0.02242191 21.76688993 0 0 Z " fill="#2DFEF6" transform="translate(154,154)"/>
<path d="M0 0 C0.495 1.485 0.495 1.485 1 3 C0.46632813 2.7834375 -0.06734375 2.566875 -0.6171875 2.34375 C-7.16447708 -0.10298798 -13.92519908 -1.64932418 -20.625 1.0625 C-21.40875 1.701875 -22.1925 2.34125 -23 3 C-23.66128906 3.52207031 -24.32257813 4.04414063 -25.00390625 4.58203125 C-28.90516318 7.78538891 -31.45092816 10.09460583 -33 15 C-34.33333333 16.66666667 -35.66666667 18.33333333 -37 20 C-37.70710678 21.64991582 -38.37943989 23.31562256 -39 25 C-39.66 25.99 -40.32 26.98 -41 28 C-41.33 28.66 -41.66 29.32 -42 30 C-42.7115625 30.680625 -42.7115625 30.680625 -43.4375 31.375 C-45.9015448 33.93760659 -46.88504686 36.65514057 -48 40 C-48.97648017 41.02297922 -49.98131338 42.01904252 -51 43 C-51.66 43.886875 -52.32 44.77375 -53 45.6875 C-53.66 46.450625 -54.32 47.21375 -55 48 C-55.99 48 -56.98 48 -58 48 C-56.65658587 44.34718524 -55.01333975 41.2557268 -52.875 38.0078125 C-52.25560547 37.06220459 -51.63621094 36.11659668 -50.99804688 35.14233398 C-50.33869141 34.14661377 -49.67933594 33.15089355 -49 32.125 C-48.32517578 31.10156494 -47.65035156 30.07812988 -46.95507812 29.02368164 C-45.5992027 26.96838002 -44.24180305 24.91408304 -42.8828125 22.86083984 C-41.24583515 20.37353428 -39.63175422 17.87412813 -38.03125 15.36328125 C-32.75521729 7.13393536 -27.87799458 -0.41382314 -18.17578125 -3.59765625 C-11.82099012 -4.77277921 -5.37825368 -3.58550246 0 0 Z M-59 48 C-58.34 48.33 -57.68 48.66 -57 49 C-58.26207656 52.49498124 -59.78492852 55.04657136 -62 58 C-62.68132451 59.66072849 -63.34742127 61.327767 -64 63 C-66.48270156 67.59299789 -69.52272672 72.09654281 -73 76 C-73.66 76 -74.32 76 -75 76 C-75 76.66 -75 77.32 -75 78 C-76.375 79.625 -76.375 79.625 -78 81 C-78.66 81 -79.32 81 -80 81 C-80 82.32 -80 83.64 -80 85 C-82.31 85 -84.62 85 -87 85 C-85.50434287 81.27325212 -83.4424874 79.63441093 -80.3125 77.1875 C-71.17649287 69.18134481 -65.31294919 58.25197312 -59 48 Z " fill="#2AFFD5" transform="translate(345,279)"/>
<path d="M0 0 C6.48082771 0.27003449 10.35951427 2.49985154 15 7 C17.37638808 9.81701004 19.58048869 12.58485773 21 16 C20.65234375 18.77734375 20.65234375 18.77734375 20 21 C19.01 21 18.02 21 17 21 C16.896875 19.741875 16.79375 18.48375 16.6875 17.1875 C16.35342189 14.49101243 16.17022107 13.23682932 14.5625 11 C13.02842666 9.82031543 13.02842666 9.82031543 11 10 C10.76539063 9.38640625 10.53078125 8.7728125 10.2890625 8.140625 C8.6609418 5.4369579 7.27366164 4.90946466 4.375 3.75 C3.55773437 3.41484375 2.74046875 3.0796875 1.8984375 2.734375 C1.27195312 2.49203125 0.64546875 2.2496875 0 2 C0 1.34 0 0.68 0 0 Z " fill="#29FFF6" transform="translate(285,124)"/>
<path d="M0 0 C-0.33 0.66 -0.66 1.32 -1 2 C-10.57 2 -20.14 2 -30 2 C-29.67 1.34 -29.34 0.68 -29 0 C-19.86490517 -2.58663975 -9.29908726 -1.04358494 0 0 Z " fill="#2BFFDB" transform="translate(215,391)"/>
<path d="M0 0 C2 3 2 3 2 5 C1.195625 5.474375 0.39125 5.94875 -0.4375 6.4375 C-3.2918076 7.79983672 -3.2918076 7.79983672 -4 11 C-5.875 13.1875 -5.875 13.1875 -8 15 C-8.99 15 -9.98 15 -11 15 C-9.2645544 8.82952674 -4.42122925 4.42122925 0 0 Z " fill="#27FBFF" transform="translate(168,129)"/>
<path d="M0 0 C-0.6484375 1.953125 -0.6484375 1.953125 -2 4 C-4.6015625 4.609375 -4.6015625 4.609375 -7.625 4.75 C-8.62789062 4.80671875 -9.63078125 4.8634375 -10.6640625 4.921875 C-11.43492187 4.94765625 -12.20578125 4.9734375 -13 5 C-12 2 -12 2 -10.0390625 1.015625 C-9.24242187 0.76296875 -8.44578125 0.5103125 -7.625 0.25 C-6.83351562 -0.01296875 -6.04203125 -0.2759375 -5.2265625 -0.546875 C-3 -1 -3 -1 0 0 Z " fill="#2BFFD6" transform="translate(257,364)"/>
<path d="M0 0 C-0.33 0.99 -0.66 1.98 -1 3 C-2.625 3.5625 -2.625 3.5625 -5 4 C-7.3347961 4.66152556 -9.66836622 5.32741333 -12 6 C-11.375 4.125 -11.375 4.125 -10 2 C-6.38181456 0.42687589 -3.97906647 0 0 0 Z M-4 3 C-3.01 3.33 -2.02 3.66 -1 4 C-1.99 4.33 -2.98 4.66 -4 5 C-4 4.34 -4 3.68 -4 3 Z " fill="#28FBFF" transform="translate(183,124)"/>
<path d="M0 0 C2.50357861 0.8345262 4.66785852 1.79371992 7 3 C7 3.99 7 4.98 7 6 C2.545 5.01 2.545 5.01 -2 4 C-2 3.01 -2 2.02 -2 1 C-1.34 0.67 -0.68 0.34 0 0 Z " fill="#2AFFDE" transform="translate(177,387)"/>
<path d="M0 0 C0.99 0.33 1.98 0.66 3 1 C4.125 3.875 4.125 3.875 5 7 C5.33 7.99 5.66 8.98 6 10 C5.01 9.67 4.02 9.34 3 9 C3 8.01 3 7.02 3 6 C2.34 5.67 1.68 5.34 1 5 C0.375 2.4375 0.375 2.4375 0 0 Z " fill="#2CFFE1" transform="translate(200,346)"/>
<path d="M0 0 C0.99 0.495 0.99 0.495 2 1 C2.59355614 3.64860427 2.74209269 6.29197322 3 9 C2.01 9.495 2.01 9.495 1 10 C-0.1577506 6.52674819 -0.06866652 3.63932552 0 0 Z " fill="#2CFFE4" transform="translate(198,335)"/>
</svg>
