<?xml version="1.0" encoding="UTF-8"?>
<svg version="1.1" xmlns="http://www.w3.org/2000/svg" width="500" height="500">
<path d="M0 0 C1.47643478 0.00264359 1.47643478 0.00264359 2.98269653 0.00534058 C19.14868677 0.06967647 34.39119053 1.23278256 50.0625 5.5 C51.0201123 5.75700684 51.97772461 6.01401367 52.96435547 6.27880859 C73.77032821 12.03410314 93.10771713 20.52297718 111.0625 32.5 C111.70300293 32.9242627 112.34350586 33.34852539 113.00341797 33.78564453 C120.70209448 38.93621007 127.66363422 44.59429705 134.37890625 50.96875 C136.65892411 53.11933453 138.98152274 55.16613724 141.375 57.1875 C173.87365177 85.43643196 194.50262608 133.19122972 198.0625 175.5 C198.19649195 178.46188719 198.22612531 181.41815179 198.23046875 184.3828125 C198.23379715 185.20014862 198.23712555 186.01748474 198.24055481 186.85958862 C198.24558207 188.5789128 198.24796445 190.2982466 198.24780273 192.01757812 C198.2499771 194.59782724 198.26814476 197.17763938 198.28710938 199.7578125 C198.40153863 232.1640614 189.27186375 262.09859803 174.0625 290.5 C173.52238281 291.5209375 172.98226563 292.541875 172.42578125 293.59375 C164.84830356 307.24421828 154.87635332 319.30852006 144.0625 330.5 C143.09183594 331.51320313 143.09183594 331.51320313 142.1015625 332.546875 C106.07684316 369.38663324 56.76536289 390.10529093 5.48730469 390.78588867 C-36.00529965 391.14833068 -79.39408761 381.12422565 -112.9375 355.5 C-114.37802734 354.45392578 -114.37802734 354.45392578 -115.84765625 353.38671875 C-121.70836737 349.09676712 -127.23858664 344.60720181 -132.5703125 339.67578125 C-134.10109299 338.26877674 -135.65732305 336.88876043 -137.2421875 335.54296875 C-143.26508228 330.42663426 -148.09085122 324.72557747 -152.9375 318.5 C-153.77271127 317.45384688 -154.60866471 316.4082859 -155.4453125 315.36328125 C-161.21681192 308.09092692 -166.33079676 300.57447167 -170.9375 292.5 C-171.2969873 291.87673828 -171.65647461 291.25347656 -172.02685547 290.61132812 C-180.26916209 276.1792459 -186.40414151 260.91682758 -190.75 244.875 C-190.93272461 244.20936035 -191.11544922 243.5437207 -191.30371094 242.85791016 C-195.24302601 227.31545541 -196.48842965 211.79495641 -196.375 195.8125 C-196.37195862 194.89790009 -196.36891724 193.98330017 -196.36578369 193.04098511 C-196.26425246 172.33244872 -193.65701054 153.21880377 -186.70214844 133.65234375 C-185.96868494 131.58777982 -185.26769771 129.51447308 -184.5703125 127.4375 C-178.85775038 110.88985312 -170.13138953 95.67500589 -159.9375 81.5 C-159.55110352 80.95134277 -159.16470703 80.40268555 -158.76660156 79.83740234 C-142.01790704 56.28674429 -119.19425614 37.30443556 -93.9375 23.5 C-93.31343262 23.15775391 -92.68936523 22.81550781 -92.04638672 22.46289062 C-78.49829134 15.13736708 -64.23388959 9.76445273 -49.375 5.75 C-48.69332764 5.56348877 -48.01165527 5.37697754 -47.30932617 5.18481445 C-31.57765727 1.15749276 -16.18524571 -0.07777341 0 0 Z " fill="#1E1E1B" transform="translate(248.9375,54.5)"/>
<path d="M0 0 C1.47643478 0.00264359 1.47643478 0.00264359 2.98269653 0.00534058 C19.14868677 0.06967647 34.39119053 1.23278256 50.0625 5.5 C51.0201123 5.75700684 51.97772461 6.01401367 52.96435547 6.27880859 C73.77032821 12.03410314 93.10771713 20.52297718 111.0625 32.5 C111.70300293 32.9242627 112.34350586 33.34852539 113.00341797 33.78564453 C120.70209448 38.93621007 127.66363422 44.59429705 134.37890625 50.96875 C136.65892411 53.11933453 138.98152274 55.16613724 141.375 57.1875 C173.87365177 85.43643196 194.50262608 133.19122972 198.0625 175.5 C198.19649195 178.46188719 198.22612531 181.41815179 198.23046875 184.3828125 C198.23379715 185.20014862 198.23712555 186.01748474 198.24055481 186.85958862 C198.24558207 188.5789128 198.24796445 190.2982466 198.24780273 192.01757812 C198.2499771 194.59782724 198.26814476 197.17763938 198.28710938 199.7578125 C198.40153863 232.1640614 189.27186375 262.09859803 174.0625 290.5 C173.52238281 291.5209375 172.98226563 292.541875 172.42578125 293.59375 C164.84830356 307.24421828 154.87635332 319.30852006 144.0625 330.5 C143.09183594 331.51320313 143.09183594 331.51320313 142.1015625 332.546875 C106.07684316 369.38663324 56.76536289 390.10529093 5.48730469 390.78588867 C-36.00529965 391.14833068 -79.39408761 381.12422565 -112.9375 355.5 C-114.37802734 354.45392578 -114.37802734 354.45392578 -115.84765625 353.38671875 C-121.70836737 349.09676712 -127.23858664 344.60720181 -132.5703125 339.67578125 C-134.10109299 338.26877674 -135.65732305 336.88876043 -137.2421875 335.54296875 C-143.26508228 330.42663426 -148.09085122 324.72557747 -152.9375 318.5 C-153.77271127 317.45384688 -154.60866471 316.4082859 -155.4453125 315.36328125 C-161.21681192 308.09092692 -166.33079676 300.57447167 -170.9375 292.5 C-171.2969873 291.87673828 -171.65647461 291.25347656 -172.02685547 290.61132812 C-180.26916209 276.1792459 -186.40414151 260.91682758 -190.75 244.875 C-190.93272461 244.20936035 -191.11544922 243.5437207 -191.30371094 242.85791016 C-195.24302601 227.31545541 -196.48842965 211.79495641 -196.375 195.8125 C-196.37195862 194.89790009 -196.36891724 193.98330017 -196.36578369 193.04098511 C-196.26425246 172.33244872 -193.65701054 153.21880377 -186.70214844 133.65234375 C-185.96868494 131.58777982 -185.26769771 129.51447308 -184.5703125 127.4375 C-178.85775038 110.88985312 -170.13138953 95.67500589 -159.9375 81.5 C-159.55110352 80.95134277 -159.16470703 80.40268555 -158.76660156 79.83740234 C-142.01790704 56.28674429 -119.19425614 37.30443556 -93.9375 23.5 C-93.31343262 23.15775391 -92.68936523 22.81550781 -92.04638672 22.46289062 C-78.49829134 15.13736708 -64.23388959 9.76445273 -49.375 5.75 C-48.69332764 5.56348877 -48.01165527 5.37697754 -47.30932617 5.18481445 C-31.57765727 1.15749276 -16.18524571 -0.07777341 0 0 Z M-42.9375 30.5 C-44.22116455 30.85408936 -44.22116455 30.85408936 -45.53076172 31.21533203 C-91.33182997 44.29051275 -129.4250921 75.64958798 -152.62182617 117.13110352 C-162.64610141 135.65962454 -168.10857278 154.71136934 -170.9375 175.5 C-171.0715625 176.43585938 -171.205625 177.37171875 -171.34375 178.3359375 C-176.49926985 220.29614072 -163.21013491 264.60917721 -137.98046875 298.09765625 C-133.2418118 304.14481807 -128.17555168 309.88276276 -122.9375 315.5 C-122.21304688 316.29019531 -121.48859375 317.08039063 -120.7421875 317.89453125 C-94.17483003 345.76774189 -57.57293734 361.32790676 -19.9375 366.5 C-19.01324219 366.63277344 -18.08898437 366.76554687 -17.13671875 366.90234375 C25.54668736 371.87186312 71.5406554 359.44628052 105.41210938 332.82421875 C143.18095323 302.51974995 166.86819733 263.24254279 173.40844727 214.9453125 C178.22027462 171.01086002 165.71882503 126.06782737 138.0625 91.5 C134.56769174 87.33355522 130.84214517 83.40740782 127.0625 79.5 C126.18851562 78.57445312 125.31453125 77.64890625 124.4140625 76.6953125 C113.63866302 65.54072008 101.37843325 56.40679315 88.0625 48.5 C87.18754883 47.98010498 87.18754883 47.98010498 86.29492188 47.44970703 C71.32954747 38.70621578 55.00132027 33.00290587 38.0625 29.5 C37.39959961 29.35046875 36.73669922 29.2009375 36.05371094 29.046875 C11.44512471 23.6378821 -18.67199664 23.71656709 -42.9375 30.5 Z " fill="#C39344" transform="translate(248.9375,54.5)"/>
<path d="M0 0 C20.6101571 -0.22580192 41.21931173 -0.40998046 61.83039188 -0.51812172 C71.40064357 -0.56966992 80.97007182 -0.639936 90.53979492 -0.75439453 C98.88158243 -0.85411873 107.22277362 -0.91859373 115.56514066 -0.94088495 C119.98209076 -0.95391467 124.39733505 -0.98449282 128.81373787 -1.05730057 C132.97326417 -1.12531624 137.13038713 -1.14609151 141.29041672 -1.13107681 C142.81470126 -1.13382219 144.33906824 -1.15364214 145.86287117 -1.19205475 C157.36018151 -1.4676031 157.36018151 -1.4676031 161.41732597 2.16345596 C163.22758525 4.70643338 164.64250485 7.19403558 166 10 C166.79341992 11.32581872 167.59574059 12.64643608 168.4140625 13.95703125 C169.15451698 15.24018831 169.89139989 16.52541191 170.625 17.8125 C174.35756068 24.25235934 178.1947673 30.61636073 182.125 36.9375 C182.92901245 38.23071167 182.92901245 38.23071167 183.74926758 39.55004883 C184.88696373 41.37960738 186.02474321 43.20911411 187.16259766 45.03857422 C190.56121038 50.51627451 193.93587059 56.00873372 197.3125 61.5 C197.95783691 62.54921631 198.60317383 63.59843262 199.26806641 64.67944336 C200.53054707 66.73214579 201.78971522 68.78688955 203.04541016 70.84375 C204.43813738 73.09271047 205.8498405 75.31636359 207.29443359 77.53125 C207.66996872 78.11612183 208.04550385 78.70099365 208.43241882 79.30358887 C209.48605805 80.94271511 210.55165897 82.57413421 211.61791992 84.20507812 C213 87 213 87 212.86694336 89.1027832 C211.87981765 91.26300676 210.80656578 93.28503848 209.5859375 95.32421875 C209.0798999 96.17516113 208.5738623 97.02610352 208.05249023 97.90283203 C207.49891846 98.82177246 206.94534668 99.74071289 206.375 100.6875 C205.79886963 101.65284668 205.22273926 102.61819336 204.62915039 103.61279297 C202.75791956 106.74497793 200.87928585 109.87264247 199 113 C197.74059716 115.10269196 196.48148224 117.20555639 195.22265625 119.30859375 C192.07954316 124.55590843 188.93007114 129.79937385 185.77832031 135.04150391 C183.12029455 139.46351876 180.46646823 143.88804925 177.8125 148.3125 C176.85286507 149.91145862 175.89322966 151.51041696 174.93359375 153.109375 C172.84042639 156.59775034 170.7497593 160.08761347 168.66015625 163.578125 C168.11061279 164.49553467 167.56106934 165.41294434 166.99487305 166.3581543 C165.93974276 168.11967323 164.88518876 169.88153752 163.83129883 171.64379883 C163.12203247 172.82752075 163.12203247 172.82752075 162.3984375 174.03515625 C161.98255371 174.7300415 161.56666992 175.42492676 161.13818359 176.14086914 C160.13143881 177.78530533 159.06953699 179.39569452 158 181 C155.15899567 181.28618725 152.53689419 181.37815744 149.69482422 181.34057617 C148.83621796 181.34101425 147.97761169 181.34145233 147.09298706 181.34190369 C144.24665822 181.33980874 141.40091381 181.31644467 138.5546875 181.29296875 C136.58456748 181.2873753 134.6144433 181.28310402 132.64431763 181.28010559 C127.4524997 181.26863705 122.26093254 181.23915262 117.06921387 181.20599365 C111.77404167 181.17533601 106.47882906 181.16160948 101.18359375 181.14648438 C90.78893446 181.11428477 80.39452728 181.06150048 70 181 C70 168.79 70 156.58 70 144 C74.63933594 144.25265625 79.27867187 144.5053125 84.05859375 144.765625 C87.03584267 144.86337012 90.00866564 144.95246862 92.98632812 145.01171875 C97.69606112 145.10622388 102.39098745 145.22848259 107.09204102 145.53955078 C123.57554451 147.10459798 123.57554451 147.10459798 138.58760071 141.77421188 C145.08082216 135.34527724 148.8233956 126.77948297 152.40679932 118.51426697 C154.79152829 113.25405441 157.80413752 108.44250348 160.875 103.5625 C162.22704212 101.31900882 163.56733011 99.06951737 164.89746094 96.81298828 C165.82889949 95.2813535 166.84718423 93.80304468 167.8828125 92.33984375 C169.40794337 89.14560112 168.80955338 87.41315271 168 84 C166.746386 81.39859847 166.746386 81.39859847 165.078125 78.90234375 C164.16667725 77.46689209 164.16667725 77.46689209 163.23681641 76.00244141 C162.58116699 74.99101074 161.92551758 73.97958008 161.25 72.9375 C159.88750544 70.79850529 158.52553707 68.65917533 157.1640625 66.51953125 C156.4721582 65.43881348 155.78025391 64.3580957 155.06738281 63.24462891 C151.87412835 58.23301439 148.74778907 53.18071225 145.625 48.125 C145.07231445 47.23417725 144.51962891 46.34335449 143.95019531 45.42553711 C143.18980957 44.19782593 143.18980957 44.19782593 142.4140625 42.9453125 C141.9701416 42.22875488 141.5262207 41.51219727 141.06884766 40.77392578 C140 39 140 39 139 37 C70.195 36.505 70.195 36.505 0 36 C0 24.12 0 12.24 0 0 Z " fill="#E7C15D" transform="translate(158,161)"/>
<path d="M0 0 C28.2975357 -0.68278236 28.2975357 -0.68278236 42.32368946 -0.85431576 C49.89660182 -0.94836492 57.4663154 -1.0675346 65.03686523 -1.2824707 C71.67630275 -1.47088065 78.31319631 -1.56893447 84.95541954 -1.61291313 C87.48397976 -1.64423289 90.01235839 -1.70540508 92.53943825 -1.79741096 C111.85332476 -2.47236908 111.85332476 -2.47236908 117.16540146 1.70137405 C121.93470436 7.04635057 124.75494903 13.26484708 127 20 C126.11962891 21.88525391 126.11962891 21.88525391 124.7265625 23.9765625 C124.2315625 24.729375 123.7365625 25.4821875 123.2265625 26.2578125 C122.43378906 27.42957031 122.43378906 27.42957031 121.625 28.625 C121.10421875 29.41390625 120.5834375 30.2028125 120.046875 31.015625 C116.23118622 36.76881378 116.23118622 36.76881378 115 38 C112.56603981 38.09498646 110.16057048 38.12558417 107.72631836 38.11352539 C106.58493156 38.11374443 106.58493156 38.11374443 105.42048645 38.1139679 C102.89357702 38.11326862 100.36674038 38.10547555 97.83984375 38.09765625 C96.0924941 38.09579212 94.34514393 38.0943682 92.59779358 38.09336853 C87.98968066 38.08954293 83.38159905 38.07971229 78.77349854 38.06866455 C73.24940386 38.05665694 67.72529874 38.05204839 62.20119476 38.04621124 C53.8007747 38.03650055 45.40042341 38.0173443 37 38 C37 62.75 37 87.5 37 113 C24.79 113 12.58 113 0 113 C0 75.71 0 38.42 0 0 Z " fill="#F8CE64" transform="translate(158,229)"/>
<path d="M0 0 C4.28759834 4.00438084 7.59357685 8.37927248 10.9375 13.1875 C11.43701172 13.89197266 11.93652344 14.59644531 12.45117188 15.32226562 C32.3744615 43.7290205 46.11669689 79.88663417 46.16796875 114.8828125 C46.17129715 115.70014862 46.17462555 116.51748474 46.17805481 117.35958862 C46.18308207 119.0789128 46.18546445 120.7982466 46.18530273 122.51757812 C46.1874771 125.09782724 46.20564476 127.67763938 46.22460938 130.2578125 C46.33903863 162.6640614 37.20936375 192.59859803 22 221 C21.45988281 222.0209375 20.91976563 223.041875 20.36328125 224.09375 C12.78580356 237.74421828 2.81385332 249.80852006 -8 261 C-8.97066406 262.01320313 -8.97066406 262.01320313 -9.9609375 263.046875 C-45.98565684 299.88663324 -95.29713711 320.60529093 -146.57519531 321.28588867 C-188.06779965 321.64833068 -231.45658761 311.62422565 -265 286 C-266.44052734 284.95392578 -266.44052734 284.95392578 -267.91015625 283.88671875 C-273.77086737 279.59676712 -279.30108664 275.10720181 -284.6328125 270.17578125 C-286.16359299 268.76877674 -287.71982305 267.38876043 -289.3046875 266.04296875 C-295.32758228 260.92663426 -300.15335122 255.22557747 -305 249 C-305.83521127 247.95384688 -306.67116471 246.9082859 -307.5078125 245.86328125 C-313.27931192 238.59092692 -318.39329676 231.07447167 -323 223 C-323.3594873 222.37673828 -323.71897461 221.75347656 -324.08935547 221.11132812 C-332.33166209 206.6792459 -338.46664151 191.41682758 -342.8125 175.375 C-342.99522461 174.70936035 -343.17794922 174.0437207 -343.36621094 173.35791016 C-347.13770784 158.4775772 -348.4788597 143.64869072 -348.33618164 128.33642578 C-348.31232967 125.60549831 -348.31568782 122.87553862 -348.32226562 120.14453125 C-348.30572057 110.56851493 -347.89574845 101.41688898 -346 92 C-343.43753444 95.84369834 -343.96746328 97.43558872 -344.375 102 C-346.25442361 127.12375728 -345.20597785 151.57362454 -339 176 C-338.75540039 177.01513672 -338.75540039 177.01513672 -338.50585938 178.05078125 C-333.84159351 197.19099574 -324.92205784 215.64978271 -314 232 C-313.40687012 232.89187012 -313.40687012 232.89187012 -312.80175781 233.80175781 C-307.80146844 241.23676382 -302.43246707 248.0312328 -296.28515625 254.55859375 C-294.34693646 256.62934139 -292.54602669 258.74535715 -290.75 260.9375 C-261.36797393 294.58576873 -213.04970647 314.36912389 -169.33740234 317.80371094 C-113.46876599 321.08962049 -62.6561002 306.34341567 -20.39453125 268.82421875 C-14.23864849 263.31279152 -14.23864849 263.31279152 -8.7578125 257.1484375 C-8.17773438 256.43945312 -7.59765625 255.73046875 -7 255 C-6.34 255 -5.68 255 -5 255 C-4.74347656 254.42378906 -4.48695313 253.84757813 -4.22265625 253.25390625 C-2.47115417 250.02509889 -0.03851686 247.58849747 2.44140625 244.90234375 C4.2044029 242.98116107 4.2044029 242.98116107 5 240 C4.34 240 3.68 240 3 240 C1.4449782 241.57242876 -0.04607385 243.20864957 -1.5 244.875 C-5.97674419 249.97674419 -5.97674419 249.97674419 -8 252 C-8.845625 253.010625 -9.69125 254.02125 -10.5625 255.0625 C-14.44766527 259.63214848 -18.71901608 263.80463576 -23 268 C-23.99 267.67 -24.98 267.34 -26 267 C-24.6875 265 -24.6875 265 -23 263 C-22.01 263 -21.02 263 -20 263 C-20 262.34 -20 261.68 -20 261 C-18.390625 259.484375 -18.390625 259.484375 -16.25 257.75 C-12.76226021 254.79553501 -10.44711549 251.88163147 -8 248 C-6.33333333 246.33333333 -4.66666667 244.66666667 -3 243 C4.25236286 234.5566854 10.13593913 224.99141849 15 215 C16 213 17 211 18 209 C18.66 209 19.32 209 20 209 C20.12117188 208.37351562 20.24234375 207.74703125 20.3671875 207.1015625 C20.53476562 206.28429687 20.70234375 205.46703125 20.875 204.625 C21.11863281 203.40683594 21.11863281 203.40683594 21.3671875 202.1640625 C22 200 22 200 24 198 C24.71927295 195.68234271 25.3909893 193.34904126 26 191 C26.66 191 27.32 191 28 191 C27.9071875 190.01 27.9071875 190.01 27.8125 189 C28.01014445 185.83768886 28.96361513 183.54983809 30.140625 180.640625 C31.49329972 176.48422449 32.17749494 172.19957409 32.90942383 167.89916992 C33.46100983 164.70184752 34.10770449 161.63190651 35.01953125 158.515625 C40.18590744 139.99077013 38.51408025 119.42417273 36.4375 100.57421875 C36.02405978 96.68771923 35.91565406 92.90627145 36 89 C35.34 89 34.68 89 34 89 C33.91363281 88.3915625 33.82726562 87.783125 33.73828125 87.15625 C32.34930502 78.49107721 29.80410787 70.28830384 27 62 C26.64164062 60.92878906 26.28328125 59.85757813 25.9140625 58.75390625 C22.55324276 49.39843286 17.83312769 40.7758318 13.09667969 32.06298828 C12.12334082 30.23201912 11.21667681 28.3659514 10.3203125 26.49609375 C9.24669061 23.88104082 9.24669061 23.88104082 7 23 C5.74609375 21.109375 5.74609375 21.109375 4.4375 18.75 C4.00308594 17.98171875 3.56867188 17.2134375 3.12109375 16.421875 C1.97099943 13.93735068 1.42537155 11.69561299 1 9 C1.66 9 2.32 9 3 9 C2.505 8.2575 2.01 7.515 1.5 6.75 C0 4 0 4 0 0 Z " fill="#A87734" transform="translate(401,124)"/>
<path d="M0 0 C5.87774464 5.52775634 9.82177917 12.15789647 14 19 C14.68578125 20.12019531 15.3715625 21.24039063 16.078125 22.39453125 C41.43240989 65.26722951 47.55494531 117.67172356 35.609375 165.82421875 C29.99499255 186.99996031 20.91654816 206.65107853 9 225 C8.27103516 226.16789062 8.27103516 226.16789062 7.52734375 227.359375 C6.25 229.3125 6.25 229.3125 4 232 C2.68 232 1.36 232 0 232 C-2.39539077 234.12965122 -2.39539077 234.12965122 -4.625 236.875 C-5.40101563 237.77992188 -6.17703125 238.68484375 -6.9765625 239.6171875 C-7.64429688 240.40351563 -8.31203125 241.18984375 -9 242 C-9.99 242.99 -9.99 242.99 -11 244 C-11.845625 245.010625 -12.69125 246.02125 -13.5625 247.0625 C-17.44766527 251.63214848 -21.71901608 255.80463576 -26 260 C-26.99 259.67 -27.98 259.34 -29 259 C-27.6875 257 -27.6875 257 -26 255 C-25.01 255 -24.02 255 -23 255 C-23 254.34 -23 253.68 -23 253 C-21.390625 251.484375 -21.390625 251.484375 -19.25 249.75 C-15.76226021 246.79553501 -13.44711549 243.88163147 -11 240 C-9.33333333 238.33333333 -7.66666667 236.66666667 -6 235 C1.25236286 226.5566854 7.13593913 216.99141849 12 207 C13 205 14 203 15 201 C15.66 201 16.32 201 17 201 C17.12117188 200.37351562 17.24234375 199.74703125 17.3671875 199.1015625 C17.53476562 198.28429687 17.70234375 197.46703125 17.875 196.625 C18.03742188 195.81289063 18.19984375 195.00078125 18.3671875 194.1640625 C19 192 19 192 21 190 C21.71927295 187.68234271 22.3909893 185.34904126 23 183 C23.66 183 24.32 183 25 183 C24.938125 182.34 24.87625 181.68 24.8125 181 C25.01014445 177.83768886 25.96361513 175.54983809 27.140625 172.640625 C28.49329972 168.48422449 29.17749494 164.19957409 29.90942383 159.89916992 C30.46100983 156.70184752 31.10770449 153.63190651 32.01953125 150.515625 C37.18590744 131.99077013 35.51408025 111.42417273 33.4375 92.57421875 C33.02405978 88.68771923 32.91565406 84.90627145 33 81 C32.34 81 31.68 81 31 81 C30.91363281 80.3915625 30.82726562 79.783125 30.73828125 79.15625 C29.34930502 70.49107721 26.80410787 62.28830384 24 54 C23.64164062 52.92878906 23.28328125 51.85757813 22.9140625 50.75390625 C19.55324276 41.39843286 14.83312769 32.7758318 10.09667969 24.06298828 C9.12334082 22.23201912 8.21667681 20.3659514 7.3203125 18.49609375 C6.24669061 15.88104082 6.24669061 15.88104082 4 15 C2.74609375 13.109375 2.74609375 13.109375 1.4375 10.75 C1.00308594 9.98171875 0.56867188 9.2134375 0.12109375 8.421875 C-1.02900057 5.93735068 -1.57462845 3.69561299 -2 1 C-1.34 0.67 -0.68 0.34 0 0 Z " fill="#B97F34" transform="translate(404,132)"/>
<path d="M0 0 C28.2975357 -0.68278236 28.2975357 -0.68278236 42.32368946 -0.85431576 C49.89660182 -0.94836492 57.4663154 -1.0675346 65.03686523 -1.2824707 C71.67630275 -1.47088065 78.31319631 -1.56893447 84.95541954 -1.61291313 C87.48397976 -1.64423289 90.01235839 -1.70540508 92.53943825 -1.79741096 C111.85332476 -2.47236908 111.85332476 -2.47236908 117.16540146 1.70137405 C121.93470436 7.04635057 124.75494903 13.26484708 127 20 C126.11962891 21.88525391 126.11962891 21.88525391 124.7265625 23.9765625 C124.2315625 24.729375 123.7365625 25.4821875 123.2265625 26.2578125 C122.43378906 27.42957031 122.43378906 27.42957031 121.625 28.625 C121.10421875 29.41390625 120.5834375 30.2028125 120.046875 31.015625 C116.23118622 36.76881378 116.23118622 36.76881378 115 38 C112.56603981 38.09498646 110.16057048 38.12558417 107.72631836 38.11352539 C106.58493156 38.11374443 106.58493156 38.11374443 105.42048645 38.1139679 C102.89357702 38.11326862 100.36674038 38.10547555 97.83984375 38.09765625 C96.0924941 38.09579212 94.34514393 38.0943682 92.59779358 38.09336853 C87.98968066 38.08954293 83.38159905 38.07971229 78.77349854 38.06866455 C73.24940386 38.05665694 67.72529874 38.05204839 62.20119476 38.04621124 C53.8007747 38.03650055 45.40042341 38.0173443 37 38 C37 62.75 37 87.5 37 113 C24.79 113 12.58 113 0 113 C0 75.71 0 38.42 0 0 Z M2 2 C1.9766146 10.94637301 1.95895359 19.89273517 1.94818783 28.83913231 C1.9430154 32.99530508 1.93602311 37.15145663 1.92456055 41.30761719 C1.91352757 45.33417589 1.90768097 49.36071446 1.90512276 53.38728714 C1.90330462 54.9075108 1.89975669 56.42773361 1.89426994 57.94794846 C1.86531898 66.31836129 2.00844729 74.65770717 2.44360352 83.01806641 C2.48245887 83.80145071 2.52131422 84.58483501 2.56134701 85.39195824 C2.45808092 88.99862143 2.45808092 88.99862143 4 92 C4.23695148 94.69422605 4.42168602 97.36334611 4.5625 100.0625 C4.706875 102.681875 4.85125 105.30125 5 108 C12.92 108 20.84 108 29 108 C29 108.66 29 109.32 29 110 C29.99 110 30.98 110 32 110 C35.86226031 102.27547938 33.96595955 90.37625387 33.31884766 81.95507812 C33.07436583 78.62190248 32.93120849 76.20637453 34 73 C34 60.79 34 48.58 34 36 C60.73 36 87.46 36 115 36 C115 34.68 115 33.36 115 32 C115.66 32 116.32 32 117 32 C118.90822883 29.47612549 118.90822883 29.47612549 120.75 26.3125 C121.40484375 25.25675781 122.0596875 24.20101562 122.734375 23.11328125 C124.27951438 20.15181594 124.27951438 20.15181594 123.45703125 17.49609375 C121.71153373 14.50581783 119.88206336 11.61567231 117.9375 8.75 C117.22464844 7.69296875 116.51179688 6.6359375 115.77734375 5.546875 C114.23112543 3.17272351 114.23112543 3.17272351 113 2 C111.55786001 1.90441964 110.11105921 1.87811606 108.66575623 1.87974548 C107.73041046 1.87837082 106.7950647 1.87699615 105.83137512 1.87557983 C104.79703842 1.87917511 103.76270172 1.88277039 102.69702148 1.88647461 C101.61422913 1.88632858 100.53143677 1.88618256 99.41583252 1.8860321 C95.81756626 1.88673177 92.21935103 1.89452667 88.62109375 1.90234375 C86.13387582 1.90420774 83.64665752 1.90563173 81.15943909 1.90663147 C75.26978809 1.9100665 69.3801561 1.91795723 63.49051291 1.92798096 C56.12974626 1.94023754 48.76897736 1.94562209 41.40820312 1.95117188 C28.27212602 1.96191185 15.13606417 1.97879911 2 2 Z " fill="#B5883C" transform="translate(158,229)"/>
<path d="M0 0 C1.47643478 0.00264359 1.47643478 0.00264359 2.98269653 0.00534058 C19.14868677 0.06967647 34.39119053 1.23278256 50.0625 5.5 C51.0201123 5.75700684 51.97772461 6.01401367 52.96435547 6.27880859 C73.77032821 12.03410314 93.10771713 20.52297718 111.0625 32.5 C111.70300293 32.9242627 112.34350586 33.34852539 113.00341797 33.78564453 C120.70209448 38.93621007 127.66363422 44.59429705 134.37890625 50.96875 C136.65892411 53.11933453 138.98152274 55.16613724 141.375 57.1875 C149.50164139 64.28977483 149.50164139 64.28977483 152.0625 68.5 C151.74609375 70.73828125 151.74609375 70.73828125 151.0625 72.5 C148.39451659 70.55309319 146.35551063 69.00610927 144.6875 66.125 C142.79301255 63.06467412 140.60284896 61.25404542 137.84765625 58.984375 C135.40426314 56.95266957 133.21065453 54.8434413 131.0625 52.5 C131.0625 51.84 131.0625 51.18 131.0625 50.5 C130.19625 50.0978125 130.19625 50.0978125 129.3125 49.6875 C127.00699957 48.47070811 125.04193808 47.19666121 123.0625 45.5 C123.0625 44.84 123.0625 44.18 123.0625 43.5 C122.34191406 43.24605469 121.62132812 42.99210937 120.87890625 42.73046875 C117.86040525 41.41170618 115.60981931 39.81611694 113 37.8125 C75.08112402 9.7281988 22.6629231 -1.8044008 -23.8828125 4.29296875 C-29.60900937 5.17129763 -35.27561179 6.27871949 -40.9375 7.5 C-42.34500776 7.78797715 -43.75255564 8.07575828 -45.16015625 8.36328125 C-49.74868716 9.35416002 -53.7712297 10.32933816 -57.9375 12.5 C-59.53174404 12.96498785 -61.12727033 13.42626693 -62.73046875 13.859375 C-66.65307262 14.99797152 -70.50135324 16.36762332 -74.36328125 17.6953125 C-76.9375 18.5 -76.9375 18.5 -78.9375 18.5 C-78.9375 20.15 -78.9375 21.8 -78.9375 23.5 C-80.2575 24.16 -81.5775 24.82 -82.9375 25.5 C-82.9375 24.18 -82.9375 22.86 -82.9375 21.5 C-84.31035156 22.25796875 -84.31035156 22.25796875 -85.7109375 23.03125 C-86.91133845 23.68771927 -88.11186587 24.3439573 -89.3125 25 C-89.91578125 25.33386719 -90.5190625 25.66773437 -91.140625 26.01171875 C-95.7109375 28.5 -95.7109375 28.5 -97.9375 28.5 C-97.9375 29.16 -97.9375 29.82 -97.9375 30.5 C-98.49695313 30.73332031 -99.05640625 30.96664062 -99.6328125 31.20703125 C-107.43578576 34.75725863 -113.6872641 39.75416117 -120.26855469 45.14404297 C-123.41740935 47.70237223 -126.64443205 50.16373234 -129.8515625 52.6484375 C-132.19867771 54.7318319 -133.99361209 57.04166902 -135.9375 59.5 C-137.01175029 60.45155038 -138.11473874 61.37213687 -139.25 62.25 C-142.95995947 65.30432008 -145.65589707 68.85777717 -148.45703125 72.7421875 C-148.94558594 73.32226562 -149.43414062 73.90234375 -149.9375 74.5 C-150.5975 74.5 -151.2575 74.5 -151.9375 74.5 C-152.17210937 75.01820313 -152.40671875 75.53640625 -152.6484375 76.0703125 C-154.38070277 79.33537006 -156.48025795 82.32787373 -158.5625 85.375 C-174.43750276 108.97235683 -187.28154874 136.01253822 -190.9375 164.5 C-191.5975 164.5 -192.2575 164.5 -192.9375 164.5 C-193.22746124 157.53385811 -192.29271868 151.74533271 -190.375 145.0625 C-190.10397461 144.10239014 -189.83294922 143.14228027 -189.55371094 142.15307617 C-183.18839768 120.17819615 -173.29425335 100.07309291 -159.9375 81.5 C-159.55110352 80.95134277 -159.16470703 80.40268555 -158.76660156 79.83740234 C-142.01790704 56.28674429 -119.19425614 37.30443556 -93.9375 23.5 C-93.31343262 23.15775391 -92.68936523 22.81550781 -92.04638672 22.46289062 C-78.49829134 15.13736708 -64.23388959 9.76445273 -49.375 5.75 C-48.69332764 5.56348877 -48.01165527 5.37697754 -47.30932617 5.18481445 C-31.57765727 1.15749276 -16.18524571 -0.07777341 0 0 Z " fill="#B98A42" transform="translate(248.9375,54.5)"/>
<path d="M0 0 C0.33 0 0.66 0 1 0 C1.15855469 1.29550781 1.31710938 2.59101563 1.48046875 3.92578125 C3.66858077 20.92027895 7.16884376 36.94285946 14.17578125 52.6328125 C14.44777344 53.41398437 14.71976563 54.19515625 15 55 C14.67 55.66 14.34 56.32 14 57 C14.66 57 15.32 57 16 57 C16.32613281 57.79664063 16.65226562 58.59328125 16.98828125 59.4140625 C19.70651959 66.10763819 19.70651959 66.10763819 22.8125 72.625 C24 75 24 75 24 77 C25.485 77.495 25.485 77.495 27 78 C28.28125 80.14453125 28.28125 80.14453125 29.5 82.8125 C30.73608486 85.49464566 31.87703825 87.83672767 33.65625 90.19921875 C35 92 35 92 35 94 C35.66 94 36.32 94 37 94 C37.97445941 95.41128604 38.94150464 96.82861553 39.859375 98.27734375 C42.05941832 101.60001192 44.64385962 104.65465119 47.47265625 107.4609375 C49.0476244 109.0479898 50.45347475 110.7124599 51.875 112.4375 C54.35378559 115.35695858 56.95792883 117.65994525 60 120 C61.66666667 121.66666667 63.33333333 123.33333333 65 125 C68.80609571 128.47284309 72.5496929 131.3821723 77 134 C77.33 134.66 77.66 135.32 78 136 C78.99 136.33 79.98 136.66 81 137 C80.34 138.32 79.68 139.64 79 141 C74.12573894 141 72.21547464 139.25007031 68.625 136.3125 C67.7122229 135.57906372 67.7122229 135.57906372 66.78100586 134.83081055 C57.19691488 127.02305474 47.71648251 118.69461082 40 109 C39.24589844 108.071875 38.49179688 107.14375 37.71484375 106.1875 C16.84125465 80.07710298 -4.29762499 42.38706224 -3 8 C-2.01 7.67 -1.02 7.34 0 7 C0 4.69 0 2.38 0 0 Z " fill="#BE8437" transform="translate(60,266)"/>
<path d="M0 0 C-0.0390625 2.1640625 -0.0390625 2.1640625 -1 5 C-3.237936 7.11974063 -5.78368662 8.71844595 -8.375 10.375 C-9.10960449 10.85831787 -9.84420898 11.34163574 -10.60107422 11.83959961 C-12.07050894 12.80370472 -13.54392114 13.76177819 -15.02148438 14.71337891 C-16.61408452 15.74904065 -18.17910085 16.82705502 -19.734375 17.91796875 C-58.49268584 44.58014009 -111.61866458 50.32923155 -156.92578125 42.3046875 C-164.6885264 40.82235426 -172.35716297 39.00677844 -180 37 C-180.33 35.68 -180.66 34.36 -181 33 C-182.32 33 -183.64 33 -185 33 C-185 32.34 -185 31.68 -185 31 C-179.02222858 31.92716455 -173.28587009 33.16089754 -167.5 34.9375 C-153.06263254 39.14538632 -138.51561197 40.50449232 -123.52050781 40.39111328 C-121.00010118 40.37500065 -118.481297 40.39109963 -115.9609375 40.41015625 C-101.11632516 40.42977924 -86.50700402 38.64085718 -72.1875 34.625 C-71.40528076 34.41077393 -70.62306152 34.19654785 -69.81713867 33.97583008 C-57.50602391 30.53516369 -46.21530017 25.88117758 -34.90917969 19.984375 C-32.92789216 18.96282113 -30.93048632 17.97880813 -28.9296875 16.99609375 C-20.6427418 12.8626852 -12.76786077 7.8496893 -5.48828125 2.12890625 C-3.56770244 0.67208926 -2.43918605 0 0 0 Z " fill="#D39842" transform="translate(371,398)"/>
<path d="M0 0 C20.67921987 -0.11278502 41.35819147 -0.20492449 62.03764057 -0.25906086 C71.63905648 -0.2848633 81.240268 -0.32005265 90.84155273 -0.37719727 C99.20820139 -0.42696996 107.57470206 -0.45927617 115.94149464 -0.47044247 C120.37340209 -0.47697169 124.80488612 -0.49235904 129.2366581 -0.52865028 C133.40554606 -0.56251317 137.57383501 -0.57307284 141.74284744 -0.56553841 C143.2751624 -0.56691733 144.80749678 -0.57690806 146.33969307 -0.59602737 C148.42819834 -0.62081664 150.51442637 -0.61496069 152.60298157 -0.60127258 C154.35761451 -0.60818603 154.35761451 -0.60818603 156.14769459 -0.61523914 C159 0 159 0 160.89981365 2.53757954 C161.44440589 3.75647767 161.44440589 3.75647767 162 5 C161.47285275 4.6757435 160.94570549 4.35148701 160.40258408 4.01740456 C157.32883392 2.71578625 154.89733624 2.73752717 151.55865479 2.7215271 C150.91411937 2.7157347 150.26958395 2.7099423 149.60551715 2.70397437 C147.44822359 2.68698427 145.29114409 2.68409879 143.13378906 2.68115234 C141.58641537 2.67185347 140.03904669 2.66168485 138.49168396 2.65071106 C134.2916522 2.62339238 130.09165402 2.60825612 125.89155674 2.59528303 C121.50194507 2.57966067 117.11240204 2.5528676 112.72283936 2.5272522 C104.41087084 2.48044856 96.09888944 2.44371212 87.78685641 2.41057932 C78.3237816 2.37236914 68.8607757 2.32295609 59.39775896 2.27259517 C39.93188384 2.16925171 20.46597977 2.0814781 1 2 C1 12.56 1 23.12 1 34 C5.14788086 33.90050049 9.29576172 33.80100098 13.56933594 33.69848633 C27.29479251 33.38325007 41.0201967 33.17266746 54.74830246 33.01556873 C63.06992499 32.91779764 71.3881069 32.78466498 79.70751953 32.56665039 C86.96348924 32.37659538 94.21696778 32.25454674 101.47535729 32.2123186 C105.31638025 32.18764354 109.15028128 32.13021214 112.98900604 31.99112892 C136.29713257 31.17867539 136.29713257 31.17867539 142.44168663 35.86039352 C146.41705835 40.31650844 148.89367823 45.24899348 151.07361412 50.77052879 C152.32473122 53.781509 153.9644781 56.24022242 155.83203125 58.90625 C156.33927734 59.68871094 156.84652344 60.47117188 157.36914062 61.27734375 C158.37500146 62.82628777 159.3886367 64.37019913 160.40820312 65.91015625 C160.89869141 66.67199219 161.38917969 67.43382812 161.89453125 68.21875 C162.32612549 68.87810547 162.75771973 69.53746094 163.20239258 70.21679688 C164 72 164 72 163 75 C159.13789403 70.51260068 156.24371972 65.58164731 153.25 60.5 C151.762887 57.99000504 150.27459794 55.48336259 148.74794006 52.99717236 C147 50 147 50 145.41160583 46.67730427 C142.07864748 39.94110732 142.07864748 39.94110732 136.0541687 35.80624962 C132.42347041 35.35696076 128.98914413 35.32479428 125.33203125 35.43237305 C123.96137403 35.42616842 122.59073268 35.41424219 121.22016907 35.39706421 C117.51851326 35.36673592 113.82176928 35.41592414 110.12070465 35.47994971 C106.24627472 35.53327553 102.37223431 35.51273716 98.49755859 35.50019836 C91.16942878 35.48762321 83.84333901 35.54100043 76.51566696 35.61836988 C68.16979917 35.70325704 59.82433999 35.71417652 51.47810173 35.71903551 C34.31762253 35.73067525 17.15986998 35.84446546 0 36 C0 24.12 0 12.24 0 0 Z " fill="#B38B44" transform="translate(158,161)"/>
<path d="M0 0 C0.30078125 2.296875 0.30078125 2.296875 0 5 C-2.01953125 6.703125 -2.01953125 6.703125 -4.8125 8.25 C-10.29820553 11.45768292 -14.93233689 15.17276283 -19.6875 19.375 C-20.450625 19.91125 -21.21375 20.4475 -22 21 C-23.485 20.505 -23.485 20.505 -25 20 C-25.14501953 21.1446875 -25.14501953 21.1446875 -25.29296875 22.3125 C-26.10931254 25.41550845 -26.80907712 26.09263018 -29.3125 28 C-41.6444972 38.15445535 -50.74392271 50.96268365 -59.375 64.25 C-59.85710937 64.98863281 -60.33921875 65.72726563 -60.8359375 66.48828125 C-66.12947362 74.38454165 -66.12947362 74.38454165 -70 83 C-70.89102943 85.02295607 -71.7877617 87.04340225 -72.6875 89.0625 C-78.06765151 101.47319643 -82.136518 114.14096333 -84.70751953 127.42675781 C-85.0806328 129.29695128 -85.53297857 131.15101971 -86 133 C-86.66 133.33 -87.32 133.66 -88 134 C-89.13350534 136.01669827 -89.13350534 136.01669827 -90 138 C-90.33 138 -90.66 138 -91 138 C-90.57792587 129.63736651 -89.26486393 121.97355245 -86.9375 113.9375 C-86.62659424 112.85259277 -86.31568848 111.76768555 -85.99536133 110.64990234 C-80.15955616 90.88698378 -71.45727123 70.74921061 -58.80859375 54.359375 C-57.01190667 52.01553267 -55.40771116 49.60914562 -53.8125 47.125 C-51.51398942 43.64035963 -49.0321912 40.89115905 -46 38 C-43.64637831 35.3511505 -41.3119557 32.68687337 -38.98828125 30.01171875 C-38.33214844 29.34785156 -37.67601562 28.68398437 -37 28 C-36.34 28 -35.68 28 -35 28 C-34.505 26.515 -34.505 26.515 -34 25 C-33.34 25 -32.68 25 -32 25 C-31.80277344 24.44828125 -31.60554688 23.8965625 -31.40234375 23.328125 C-29.42003841 20.03716683 -26.58106066 18.03283403 -23.5625 15.75 C-22.94012451 15.27054932 -22.31774902 14.79109863 -21.67651367 14.29711914 C-3.02902967 0 -3.02902967 0 0 0 Z " fill="#C28737" transform="translate(148,86)"/>
<path d="M0 0 C1.5625 1.25 1.5625 1.25 3 3 C2.55040814 6.18905416 1.22523254 8.58561424 -0.4140625 11.32421875 C-0.9201001 12.17516113 -1.4261377 13.02610352 -1.94750977 13.90283203 C-2.50108154 14.82177246 -3.05465332 15.74071289 -3.625 16.6875 C-4.20113037 17.65284668 -4.77726074 18.61819336 -5.37084961 19.61279297 C-7.24208044 22.74497793 -9.12071415 25.87264247 -11 29 C-12.25940284 31.10269196 -13.51851776 33.20555639 -14.77734375 35.30859375 C-17.92045684 40.55590843 -21.06992886 45.79937385 -24.22167969 51.04150391 C-26.87970545 55.46351876 -29.53353177 59.88804925 -32.1875 64.3125 C-33.14713493 65.91145862 -34.10677034 67.51041696 -35.06640625 69.109375 C-37.15957361 72.59775034 -39.2502407 76.08761347 -41.33984375 79.578125 C-41.88938721 80.49553467 -42.43893066 81.41294434 -43.00512695 82.3581543 C-44.06025724 84.11967323 -45.11481124 85.88153752 -46.16870117 87.64379883 C-46.64154541 88.43294678 -47.11438965 89.22209473 -47.6015625 90.03515625 C-48.01744629 90.7300415 -48.43333008 91.42492676 -48.86181641 92.14086914 C-49.86856119 93.78530533 -50.93046301 95.39569452 -52 97 C-54.84100433 97.28618725 -57.46310581 97.37815744 -60.30517578 97.34057617 C-61.16378204 97.34101425 -62.02238831 97.34145233 -62.90701294 97.34190369 C-65.75334178 97.33980874 -68.59908619 97.31644467 -71.4453125 97.29296875 C-73.41543252 97.2873753 -75.3855567 97.28310402 -77.35568237 97.28010559 C-82.5475003 97.26863705 -87.73906746 97.23915262 -92.93078613 97.20599365 C-98.22595833 97.17533601 -103.52117094 97.16160948 -108.81640625 97.14648438 C-119.21104783 97.11428482 -129.60550308 97.06306426 -140 97 C-139.34 96.01 -138.68 95.02 -138 94 C-134.87986803 93.65884091 -131.95123769 93.51048994 -128.82421875 93.48828125 C-127.41219681 93.46128647 -127.41219681 93.46128647 -125.97164917 93.43374634 C-122.87697588 93.37870055 -119.7824832 93.34524125 -116.6875 93.3125 C-114.56305444 93.27969878 -112.43862376 93.24591968 -110.31420898 93.21118164 C-91.54403196 92.92505984 -72.7717605 92.88761496 -54 93 C-54 92.34 -54 91.68 -54 91 C-53.01 91 -52.02 91 -51 91 C-50.49632243 89.54293274 -49.99717444 88.08429904 -49.5 86.625 C-49.2215625 85.81289063 -48.943125 85.00078125 -48.65625 84.1640625 C-47.90326695 82.05790758 -47.90326695 82.05790758 -48 80 C-48 79.34 -48 78.68 -48 78 C-46.68 78 -45.36 78 -44 78 C-43.505 76.515 -43.505 76.515 -43 75 C-42.34 75 -41.68 75 -41 75 C-40.9071875 73.2365625 -40.9071875 73.2365625 -40.8125 71.4375 C-40.21259341 66.48827061 -38.2095751 63.75755133 -35 60 C-34.34 60 -33.68 60 -33 60 C-32.773125 59.13375 -32.54625 58.2675 -32.3125 57.375 C-30.75169653 53.36150535 -28.81568479 51.23803751 -26 48 C-24.39579389 45.43327023 -23.99969844 43.99704473 -23.6875 40.9375 C-23.460625 39.968125 -23.23375 38.99875 -23 38 C-22.195625 37.525625 -21.39125 37.05125 -20.5625 36.5625 C-16.95863852 34.36502349 -17.04671232 31.97750682 -16 28 C-14.68870078 26.64499081 -13.35308313 25.31328657 -12 24 C-10.5106477 21.40442588 -9.260746 18.71219307 -8 16 C-7.33704475 14.6648174 -6.67141582 13.33094817 -6 12 C-5.67 12.33 -5.34 12.66 -5 13 C-2.25477117 8.57221156 -0.51525603 5.28137429 0 0 Z " fill="#B77F34" transform="translate(368,245)"/>
<path d="M0 0 C3 2 3 2 3.66015625 3.84765625 C3.79292969 4.57855469 3.92570312 5.30945313 4.0625 6.0625 C4.2171875 6.86429688 4.371875 7.66609375 4.53125 8.4921875 C4.6859375 9.31976563 4.840625 10.14734375 5 11 C5.34863777 12.56374294 5.70263097 14.12630348 6.0625 15.6875 C7.22737043 20.79945203 8.00183956 25.95335237 8.71875 31.14453125 C8.84636719 32.06814453 8.97398437 32.99175781 9.10546875 33.94335938 C9.3711257 35.87529038 9.6340952 37.80759263 9.89453125 39.74023438 C10.02214844 40.65740234 10.14976562 41.57457031 10.28125 42.51953125 C10.39533203 43.35589111 10.50941406 44.19225098 10.62695312 45.05395508 C10.81085554 46.99796799 10.81085554 46.99796799 12 48 C12.09981214 50.6773138 12.13879875 53.32304175 12.125 56 C12.12886719 56.75023437 12.13273437 57.50046875 12.13671875 58.2734375 C12.12661053 63.87338947 12.12661053 63.87338947 11 65 C11.020625 66.19625 11.04125 67.3925 11.0625 68.625 C11.11345956 72.74544405 10.18877847 76.0374051 9 80 C8.45237058 82.96983648 7.97853536 85.94737228 7.50390625 88.9296875 C6.78484709 93.31093168 5.89665456 97.6523556 5 102 C4.85691406 102.81726563 4.71382813 103.63453125 4.56640625 104.4765625 C3.96985368 107.13430706 3.07438881 109.43717604 2 111.9375 C0.4606972 115.64733049 -0.38809858 119.0226408 -1 123 C-1.99 123.495 -1.99 123.495 -3 124 C-4.55203911 127.6758821 -5.46534385 130.19010598 -4 134 C-4.928125 134.37125 -4.928125 134.37125 -5.875 134.75 C-8.45751682 136.26912754 -8.79710858 137.2934943 -10 140 C-11.32346506 142.0065438 -12.65729179 144.00628175 -14 146 C-14.433125 146.763125 -14.86625 147.52625 -15.3125 148.3125 C-17.4413585 151.70290427 -19.98287137 154.67136841 -22.57421875 157.71875 C-24.23710658 160.37937052 -24.28741617 161.91976634 -24 165 C-24.75667969 165.24363281 -25.51335937 165.48726562 -26.29296875 165.73828125 C-29.37173801 167.17326317 -30.39688254 168.42577855 -32.3125 171.1875 C-35.24612927 175.18031709 -38.36068051 178.28215121 -42.203125 181.39453125 C-44.69957843 183.62505812 -46.50490191 186.00980383 -48 189 C-48.75667969 189.14050781 -49.51335937 189.28101563 -50.29296875 189.42578125 C-53.42450617 190.09004676 -54.86306327 191.15899024 -57.3125 193.1875 C-58.09496094 193.81914062 -58.87742187 194.45078125 -59.68359375 195.1015625 C-60.44800781 195.72804688 -61.21242188 196.35453125 -62 197 C-68.53520153 202.25404321 -75.50579711 206.25289855 -83 210 C-83.66 209.34 -84.32 208.68 -85 208 C-84.030625 207.48953125 -83.06125 206.9790625 -82.0625 206.453125 C-42.01908067 184.92077116 -13.0952708 149.55077575 0.8046875 106.33203125 C10.19372466 73.83091512 11.39583243 38.93349085 0.734375 6.5390625 C0 4 0 4 0 0 Z " fill="#865D2F" transform="translate(414,194)"/>
<path d="M0 0 C1.13034668 0.2489502 2.26069336 0.49790039 3.42529297 0.75439453 C4.47475098 1.00044434 5.52420898 1.24649414 6.60546875 1.5 C7.5389917 1.7165625 8.47251465 1.933125 9.43432617 2.15625 C11.94845102 3.04823393 13.11991243 3.97353889 14.8125 6 C9.10991637 7.90086121 5.96337321 8.02270738 0.125 6.25 C-5.72609139 4.56074513 -11.55155525 3.29136238 -17.5625 2.3125 C-18.28655029 2.19358398 -19.01060059 2.07466797 -19.7565918 1.95214844 C-21.89766821 1.61340296 -24.04092413 1.30179289 -26.1875 1 C-26.8386377 0.90138672 -27.48977539 0.80277344 -28.16064453 0.70117188 C-35.13197086 -0.23164617 -42.13465176 -0.15117097 -49.15380859 -0.13037109 C-51.31484943 -0.12499415 -53.47568407 -0.13035268 -55.63671875 -0.13671875 C-57.03125045 -0.13605815 -58.42578203 -0.13477736 -59.8203125 -0.1328125 C-61.06699707 -0.13168457 -62.31368164 -0.13055664 -63.59814453 -0.12939453 C-67.1927876 0.00019062 -70.63900613 0.42597055 -74.1875 1 C-74.1875 0.34 -74.1875 -0.32 -74.1875 -1 C-72.2075 -1.33 -70.2275 -1.66 -68.1875 -2 C-69.5075 -2.99 -70.8275 -3.98 -72.1875 -5 C-50.76370509 -11.58077788 -21.08527069 -4.6788641 0 0 Z " fill="#D09640" transform="translate(300.1875,63)"/>
<path d="M0 0 C4.28759834 4.00438084 7.59357685 8.37927248 10.9375 13.1875 C11.43701172 13.89197266 11.93652344 14.59644531 12.45117188 15.32226562 C32.3744615 43.7290205 46.11669689 79.88663417 46.16796875 114.8828125 C46.17296135 116.10881668 46.17296135 116.10881668 46.17805481 117.35958862 C46.18308207 119.0789128 46.18546445 120.7982466 46.18530273 122.51757812 C46.1874771 125.09782724 46.20564476 127.67763938 46.22460938 130.2578125 C46.25767045 140.3527044 45.66299595 150.03333078 44 160 C41.51506258 156.27259388 41.94264165 155.08314326 42.375 150.6875 C44.48110326 124.18149689 43.54481923 97.60335769 36 72 C35.65324219 70.80890625 35.30648437 69.6178125 34.94921875 68.390625 C27.94426017 45.95549994 16.86660227 24.57644297 1.765625 6.53125 C0 4 0 4 0 0 Z " fill="#A77633" transform="translate(401,124)"/>
<path d="M0 0 C0.33 0 0.66 0 1 0 C2.0626018 16.42180999 2.11829196 32.79874063 2.0625 49.25 C2.05747076 51.85676997 2.05291039 54.46354088 2.04882812 57.0703125 C2.03880599 63.38025173 2.0192116 69.69005573 2 76 C-9.55 76 -21.1 76 -33 76 C-32.505 75.01 -32.505 75.01 -32 74 C-31.91316555 71.22839374 -31.8844421 68.48225235 -31.90234375 65.7109375 C-31.9037587 64.89251373 -31.90517365 64.07408997 -31.90663147 63.23086548 C-31.9122371 60.61220675 -31.92479052 57.99363296 -31.9375 55.375 C-31.94251428 53.60156373 -31.94707731 51.82812613 -31.95117188 50.0546875 C-31.96220836 45.70309218 -31.97947675 41.3515605 -32 37 C-31.67 37 -31.34 37 -31 37 C-30.93941406 38.28777344 -30.87882813 39.57554687 -30.81640625 40.90234375 C-30.73201753 42.58074159 -30.6473687 44.25912636 -30.5625 45.9375 C-30.52318359 46.78763672 -30.48386719 47.63777344 -30.44335938 48.51367188 C-30.40146484 49.32255859 -30.35957031 50.13144531 -30.31640625 50.96484375 C-30.26141968 52.08814087 -30.26141968 52.08814087 -30.20532227 53.23413086 C-30.18228937 55.02461326 -30.18228937 55.02461326 -29 56 C-28.92674564 58.6986905 -28.90777649 61.36502556 -28.9375 64.0625 C-28.958125 66.681875 -28.97875 69.30125 -29 72 C-21.08 72 -13.16 72 -5 72 C-5 72.66 -5 73.32 -5 74 C-4.01 74 -3.02 74 -2 74 C-1.16106414 64.52647812 -0.94352229 55.34606521 -1.68139648 45.85400391 C-1.92692508 42.54804449 -2.06048362 40.18145087 -1 37 C-0.8460737 34.19839498 -0.74261955 31.41701575 -0.68359375 28.61328125 C-0.66281265 27.79627243 -0.64203156 26.97926361 -0.62062073 26.13749695 C-0.55526921 23.52924966 -0.49630727 20.92090225 -0.4375 18.3125 C-0.39430108 16.54360946 -0.35068635 14.77472903 -0.30664062 13.00585938 C-0.19960257 8.67067537 -0.09829456 4.33539071 0 0 Z " fill="#DBA444" transform="translate(192,265)"/>
<path d="M0 0 C1.32 0 2.64 0 4 0 C4.495 1.485 4.495 1.485 5 3 C7.475 2.505 7.475 2.505 10 2 C10 1.34 10 0.68 10 0 C10.66 0 11.32 0 12 0 C12 0.66 12 1.32 12 2 C12.99 2.495 12.99 2.495 14 3 C13.35675781 3.15033691 12.71351563 3.30067383 12.05078125 3.45556641 C-0.96537828 6.52624741 -13.70917782 9.67258893 -26 15 C-26.75087891 15.32339355 -27.50175781 15.64678711 -28.27539062 15.97998047 C-60.74083382 30.16872856 -86.34779685 53.74250655 -106 83 C-106.93972656 84.39798828 -106.93972656 84.39798828 -107.8984375 85.82421875 C-109.27227782 87.87852928 -110.64023512 89.93635683 -112 92 C-112.66 91.34 -113.32 90.68 -114 90 C-113.875 88 -113.875 88 -113 86 C-112.1028125 85.5978125 -112.1028125 85.5978125 -111.1875 85.1875 C-107.85586227 83.37889666 -106.67796984 80.25723557 -105 77 C-102.52908468 72.2882546 -99.76932913 68.76932913 -96 65 C-96 64.01 -96 63.02 -96 62 C-95.4225 61.95875 -94.845 61.9175 -94.25 61.875 C-90.87266958 60.56159373 -89.91241859 58.01350808 -88 55 C-86.37253306 53.29503463 -84.71108689 51.62102968 -83 50 C-82.34 49.34 -81.68 48.68 -81 48 C-80.236875 47.401875 -79.47375 46.80375 -78.6875 46.1875 C-75.1406287 43.30051173 -71.83426115 40.58906886 -69.6875 36.5 C-67.57212086 33.36610497 -65.19091514 32.04714529 -61.9375 30.2109375 C-59.94128913 29.08477449 -59.94128913 29.08477449 -58.5 27.3515625 C-57 26 -57 26 -53 26 C-53 25.34 -53 24.68 -53 24 C-48 22 -48 22 -45.5625 21.0625 C-39.89170936 19.08349606 -39.89170936 19.08349606 -36 15 C-34.5459375 14.814375 -34.5459375 14.814375 -33.0625 14.625 C-29.88417172 14.3508355 -29.88417172 14.3508355 -28.625 11.9375 C-28.315625 10.9784375 -28.315625 10.9784375 -28 10 C-27.505 10.99 -27.505 10.99 -27 12 C-26.37996094 11.75765625 -25.75992188 11.5153125 -25.12109375 11.265625 C-17.20866304 8.27110974 -9.18828099 6.07745861 -1 4 C-0.67 2.68 -0.34 1.36 0 0 Z " fill="#EFD281" transform="translate(209,79)"/>
<path d="M0 0 C0.30078125 2.296875 0.30078125 2.296875 0 5 C-2.01953125 6.703125 -2.01953125 6.703125 -4.8125 8.25 C-10.29820553 11.45768292 -14.93233689 15.17276283 -19.6875 19.375 C-20.450625 19.91125 -21.21375 20.4475 -22 21 C-22.99 20.67 -23.98 20.34 -25 20 C-25.14501953 21.1446875 -25.14501953 21.1446875 -25.29296875 22.3125 C-26.10931254 25.41550845 -26.80907712 26.09263018 -29.3125 28 C-38.92450186 35.91474748 -47.11101758 45.66652637 -54 56 C-55.32381517 57.67423683 -56.65576661 59.34211215 -58 61 C-59.3191624 57.04251281 -58.63392957 55.83618247 -57 52 C-53.88693854 46.68341612 -50.46356134 42.25595384 -46 38 C-43.64637831 35.3511505 -41.3119557 32.68687337 -38.98828125 30.01171875 C-38.33214844 29.34785156 -37.67601563 28.68398437 -37 28 C-36.34 28 -35.68 28 -35 28 C-34.67 27.01 -34.34 26.02 -34 25 C-33.34 25 -32.68 25 -32 25 C-31.80277344 24.44828125 -31.60554688 23.8965625 -31.40234375 23.328125 C-29.42003841 20.03716683 -26.58106066 18.03283403 -23.5625 15.75 C-22.94012451 15.27054932 -22.31774902 14.79109863 -21.67651367 14.29711914 C-3.02902967 0 -3.02902967 0 0 0 Z " fill="#C88E3B" transform="translate(148,86)"/>
<path d="M0 0 C20.54875989 -0.11670447 41.0974653 -0.20492492 61.64648914 -0.25906086 C71.1873716 -0.28486316 80.72804837 -0.32005225 90.26879883 -0.37719727 C98.58270978 -0.42697038 106.8964718 -0.45927627 115.2105276 -0.47044247 C119.61449055 -0.47697163 124.01802739 -0.49235851 128.42185402 -0.52865028 C132.56447816 -0.56251386 136.70649949 -0.57307271 140.84924889 -0.56553841 C142.37188871 -0.5669173 143.89454808 -0.57690765 145.41706848 -0.59602737 C147.4924412 -0.62081779 149.56552244 -0.61496037 151.64094543 -0.60127258 C152.80332639 -0.60588155 153.96570734 -0.61049051 155.16331196 -0.61523914 C158 0 158 0 159.89744091 2.53757954 C160.26128541 3.35017829 160.62512991 4.16277704 161 5 C160.47285275 4.6757435 159.94570549 4.35148701 159.40258408 4.01740456 C156.32883392 2.71578625 153.89733624 2.73752717 150.55865479 2.7215271 C149.91411937 2.7157347 149.26958395 2.7099423 148.60551715 2.70397437 C146.44822359 2.68698427 144.29114409 2.68409879 142.13378906 2.68115234 C140.58641537 2.67185347 139.03904669 2.66168485 137.49168396 2.65071106 C133.2916522 2.62339238 129.09165402 2.60825612 124.89155674 2.59528303 C120.50194507 2.57966067 116.11240204 2.5528676 111.72283936 2.5272522 C103.41087084 2.48044856 95.09888944 2.44371212 86.78685641 2.41057932 C77.3237816 2.37236914 67.8607757 2.32295609 58.39775896 2.27259517 C38.93188973 2.16925174 19.46597845 2.07999917 0 2 C0 1.34 0 0.68 0 0 Z " fill="#CF9E47" transform="translate(159,161)"/>
<path d="M0 0 C0 0.66 0 1.32 0 2 C-11.14993476 6.84233712 -22.24932136 10.88216915 -34 14 C-35.62808594 14.44666016 -35.62808594 14.44666016 -37.2890625 14.90234375 C-75.59478749 24.6484839 -120.87802585 20.39633346 -157 5 C-157 4.34 -157 3.68 -157 3 C-156.42749512 3.17523193 -155.85499023 3.35046387 -155.26513672 3.53100586 C-148.24958522 5.65906112 -141.19909992 7.63884125 -134.125 9.5625 C-133.03058594 9.86607422 -131.93617188 10.16964844 -130.80859375 10.48242188 C-91.70995736 21.10151898 -40.60454734 19.848494 -3.87329102 0.90307617 C-2 0 -2 0 0 0 Z " fill="#B97E24" transform="translate(332,426)"/>
<path d="M0 0 C0.99 0 1.98 0 3 0 C4.04892238 1.63631892 5.04906703 3.30485863 6 5 C6.66 5.33 7.32 5.66 8 6 C11.05268935 10.18331504 11.05268935 10.18331504 10.875 12.9375 C9.70767059 15.68906219 8.33669381 18.32661238 7 21 C6.28265194 23.11326861 5.58828938 25.22734638 4.94140625 27.36328125 C4 29 4 29 1.98046875 29.56640625 C1.00013672 29.78103516 1.00013672 29.78103516 0 30 C-2.07190488 34.35100024 -2.19055047 38.23623816 -2 43 C-2.5775 43.04125 -3.155 43.0825 -3.75 43.125 C-7.18961098 44.46262649 -8.2413627 46.85957625 -10 50 C-10 50.99 -10 51.98 -10 53 C-11.485 53.495 -11.485 53.495 -13 54 C-14.01754868 55.8653245 -14.01754868 55.8653245 -14.6875 58.0625 C-14.93886719 58.79597656 -15.19023437 59.52945313 -15.44921875 60.28515625 C-15.63097656 60.85105469 -15.81273437 61.41695313 -16 62 C-16.66 62 -17.32 62 -18 62 C-18 62.66 -18 63.32 -18 64 C-17.34 64 -16.68 64 -16 64 C-16 64.66 -16 65.32 -16 66 C-16.66 66 -17.32 66 -18 66 C-18.33 66.99 -18.66 67.98 -19 69 C-21.5625 70.1875 -21.5625 70.1875 -24 71 C-24 70.34 -24 69.68 -24 69 C-24.66 68.67 -25.32 68.34 -26 68 C-25.32179199 66.8847998 -25.32179199 66.8847998 -24.62988281 65.74707031 C-11.29431442 43.82856077 -11.29431442 43.82856077 1.90136719 21.82568359 C2.85064874 20.24818861 3.83256029 18.69041482 4.8203125 17.13671875 C6.22152679 15.00554838 6.22152679 15.00554838 6 12.25 C4.62775174 7.79019316 2.39900004 3.98357939 0 0 Z " fill="#D5A34B" transform="translate(321,236)"/>
<path d="M0 0 C0.99 0 1.98 0 3 0 C3.042721 1.66611905 3.04063832 3.33382885 3 5 C1.18884376 6.81115624 -1.29877501 6.11995376 -3.70901489 6.12442017 C-4.52828461 6.12082489 -5.34755432 6.11722961 -6.19165039 6.11352539 C-7.05011063 6.11367142 -7.90857086 6.11381744 -8.79304504 6.1139679 C-11.64460738 6.11326847 -14.49610525 6.1054747 -17.34765625 6.09765625 C-19.31920842 6.09579218 -21.29076105 6.09436822 -23.26231384 6.09336853 C-28.46226267 6.08954251 -33.66218375 6.07971152 -38.86212158 6.06866455 C-44.16393661 6.05845222 -49.4657561 6.05387129 -54.76757812 6.04882812 C-65.17839763 6.03808933 -75.58919651 6.02101191 -86 6 C-85.34 5.01 -84.68 4.02 -84 3 C-80.87986803 2.65884091 -77.95123769 2.51048994 -74.82421875 2.48828125 C-73.41219681 2.46128647 -73.41219681 2.46128647 -71.97164917 2.43374634 C-68.87697588 2.37870055 -65.7824832 2.34524125 -62.6875 2.3125 C-60.56305444 2.27969878 -58.43862376 2.24591968 -56.31420898 2.21118164 C-37.54403196 1.92505984 -18.7717605 1.88761496 0 2 C0 1.34 0 0.68 0 0 Z " fill="#9F6A29" transform="translate(314,336)"/>
<path d="M0 0 C14.85534396 -0.28074706 29.71048194 -0.49213522 44.56791687 -0.62174606 C51.46724296 -0.68353751 58.3649178 -0.76771611 65.26318359 -0.90527344 C71.92236967 -1.03799962 78.57948795 -1.10743377 85.24005127 -1.13852692 C87.7791848 -1.16067901 90.31822573 -1.20394082 92.85662842 -1.26876068 C113.76068249 -1.78126778 113.76068249 -1.78126778 118.34326172 2.54040527 C121.81335325 7.48683451 123.20659164 12.04818283 124 18 C121.55702198 15.84414661 120.12370609 14.33083147 118.97117615 11.24858093 C117.48995489 7.43583244 116.21476774 5.58209981 113 3 C104.8787599 0.7673331 95.93348405 1.58370919 87.59765625 1.70703125 C85.07416482 1.70510898 82.5506728 1.69834299 80.02720642 1.68693542 C74.07337563 1.67168471 68.12109148 1.70512716 62.16763347 1.76240796 C55.38639312 1.82491785 48.60559733 1.8248525 41.8241235 1.81968272 C27.88214023 1.81044825 13.94142086 1.87930287 0 2 C0 1.34 0 0.68 0 0 Z " fill="#CDA354" transform="translate(158,229)"/>
<path d="M0 0 C2.76257145 3.40008794 4.699622 7.12117765 6.6875 11 C14.49523017 25.8966132 24.5705569 38.71879598 36 51 C36.65097656 51.71671875 37.30195313 52.4334375 37.97265625 53.171875 C55.51856084 71.69818659 78.4766371 83.85949327 102 93 C98.61725734 94.12758089 97.23221777 93.81750262 93.8125 93.0625 C92.91144531 92.86785156 92.01039063 92.67320312 91.08203125 92.47265625 C90.05142578 92.23869141 90.05142578 92.23869141 89 92 C89 91.34 89 90.68 89 90 C88.01 90 87.02 90 86 90 C86 89.34 86 88.68 86 88 C85.05125 87.79375 84.1025 87.5875 83.125 87.375 C78.83357174 86.15505769 75.34133594 83.94677719 71.578125 81.59765625 C67.79776079 79.25497601 63.90267829 77.13044757 60 75 C60 74.34 60 73.68 60 73 C59.34 72.814375 58.68 72.62875 58 72.4375 C54.31787948 70.67315059 51.80591966 68.26245259 48.8671875 65.4609375 C47.00134729 63.6918903 47.00134729 63.6918903 44 64 C43.731875 63.360625 43.46375 62.72125 43.1875 62.0625 C42.11332248 59.66868314 42.11332248 59.66868314 39 59 C37.98648336 57.34151823 36.98879205 55.67334039 36 54 C33.74515555 51.57170597 31.58340307 49.41181393 28.875 47.5 C26.54760147 45.63808118 25.49950991 43.56166276 24 41 C23.360625 40.360625 22.72125 39.72125 22.0625 39.0625 C20 37 20 37 18 33.8125 C16.3028987 30.88056942 16.3028987 30.88056942 13.75 30.125 C13.1725 30.08375 12.595 30.0425 12 30 C12 29.01 12 28.02 12 27 C11.34 27 10.68 27 10 27 C10 24.69 10 22.38 10 20 C9.01 19.67 8.02 19.34 7 19 C5.83203125 16.78515625 5.83203125 16.78515625 4.8125 14.0625 C4.46832031 13.16660156 4.12414062 12.27070313 3.76953125 11.34765625 C3 9 3 9 3 7 C2.34 7 1.68 7 1 7 C0.67 4.69 0.34 2.38 0 0 Z M18 39 C18.99 39.33 19.98 39.66 21 40 C20.01 40 19.02 40 18 40 C18 39.67 18 39.34 18 39 Z " fill="#8F6737" transform="translate(91,319)"/>
<path d="M0 0 C21.12 0 42.24 0 64 0 C60.99895182 1.50052409 58.90648893 2.38848592 55.75 3.125 C54.5125 3.41375 53.275 3.7025 52 4 C52 4.66 52 5.32 52 6 C49.69 6 47.38 6 45 6 C45 5.34 45 4.68 45 4 C39.39 4 33.78 4 28 4 C28 3.34 28 2.68 28 2 C20.08 2.33 12.16 2.66 4 3 C2.15760484 8.26611801 2.15760484 8.26611801 1.76953125 13.34765625 C1.77146484 14.11787109 1.77339844 14.88808594 1.77539062 15.68164062 C1.78763672 16.46732422 1.79988281 17.25300781 1.8125 18.0625 C1.81314453 18.85205078 1.81378906 19.64160156 1.81445312 20.45507812 C1.84442684 24.42826071 2.02486429 28.12286042 3 32 C2.01 32 1.02 32 0 32 C0 21.44 0 10.88 0 0 Z " fill="#DAA545" transform="translate(230,307)"/>
<path d="M0 0 C11.62418516 5.15031966 22.40861125 10.96731787 33 18 C34.06347656 18.69996094 35.12695312 19.39992188 36.22265625 20.12109375 C41.26721939 23.53380102 41.26721939 23.53380102 43 25 C43 25.66 43 26.32 43 27 C43.5775 27.268125 44.155 27.53625 44.75 27.8125 C47.0325868 29.01719859 48.9737942 30.40798115 51 32 C50.67 32.99 50.34 33.98 50 35 C49.34 34.34 48.68 33.68 48 33 C47.01 33.495 47.01 33.495 46 34 C45.05382812 33.26136719 44.10765625 32.52273437 43.1328125 31.76171875 C28.98631335 20.85569169 14.16434238 11.61439279 -2 4 C-1.34 2.68 -0.68 1.36 0 0 Z " fill="#C68D3A" transform="translate(329,73)"/>
<path d="M0 0 C0.495 1.485 0.495 1.485 1 3 C-0.32355527 5.13876612 -1.69700519 7.10691822 -3.1875 9.125 C-14.0969872 24.71362831 -21.81262626 42.74166602 -27 61 C-27.20061035 61.69367676 -27.4012207 62.38735352 -27.60791016 63.10205078 C-29.49795918 69.69334645 -31.12517762 76.18331472 -32 83 C-32.66 83 -33.32 83 -34 83 C-34.28996124 76.03385811 -33.35521868 70.24533271 -31.4375 63.5625 C-31.16647461 62.60239014 -30.89544922 61.64228027 -30.61621094 60.65307617 C-24.75645965 40.4235405 -15.80543035 14.69373342 0 0 Z " fill="#AD7F3C" transform="translate(90,136)"/>
<path d="M0 0 C15.51 0 31.02 0 47 0 C47 0.33 47 0.66 47 1 C37.75334027 1.97551008 28.60227224 2.09432381 19.3125 2 C16.62105367 1.97344903 13.92984049 1.95356102 11.23828125 1.9375 C9.475448 1.92009766 9.475448 1.92009766 7.67700195 1.90234375 C5.08015197 1.69289508 5.08015197 1.69289508 4 3 C3.92399789 5.0807479 3.91701117 7.16405908 3.9375 9.24609375 C3.94587891 10.55118896 3.95425781 11.85628418 3.96289062 13.20092773 C3.96909424 13.89370819 3.97529785 14.58648865 3.98168945 15.30026245 C4.08677839 27.56641852 3.93998696 39.76338401 3 52 C2.34 52 1.68 52 1 52 C-0.23080509 49.53838983 -0.12043977 47.93503007 -0.11352539 45.18310547 C-0.11344986 44.18221893 -0.11337433 43.1813324 -0.11329651 42.15011597 C-0.10813522 41.06674957 -0.10297394 39.98338318 -0.09765625 38.8671875 C-0.0962413 37.76021515 -0.09482635 36.6532428 -0.09336853 35.51272583 C-0.08775772 31.96679007 -0.07520337 28.42091677 -0.0625 24.875 C-0.05748639 22.47526133 -0.05292325 20.07552167 -0.04882812 17.67578125 C-0.0386344 11.78381057 -0.01906103 5.89197545 0 0 Z " fill="#FFDB6E" transform="translate(160,231)"/>
<path d="M0 0 C-0.33 0.99 -0.66 1.98 -1 3 C-0.01 3.33 0.98 3.66 2 4 C0.89140625 4.20496094 -0.2171875 4.40992187 -1.359375 4.62109375 C-2.82292867 4.89316462 -4.28646967 5.16530362 -5.75 5.4375 C-6.47960937 5.57220703 -7.20921875 5.70691406 -7.9609375 5.84570312 C-9.9757109 6.22118362 -11.98796394 6.61011751 -14 7 C-14.71961914 7.13929932 -15.43923828 7.27859863 -16.18066406 7.42211914 C-17.08123535 7.70817017 -17.08123535 7.70817017 -18 8 C-18.33 8.66 -18.66 9.32 -19 10 C-19.99 9.67 -20.98 9.34 -22 9 C-24.86467196 9.71110929 -27.62834915 10.48814801 -30.4375 11.375 C-31.95685925 11.84170613 -33.47638529 12.30786972 -34.99609375 12.7734375 C-35.66825928 12.98403809 -36.3404248 13.19463867 -37.03295898 13.41162109 C-39.00971921 14.0029072 -40.99480864 14.51485952 -43 15 C-42.8125 12.125 -42.8125 12.125 -42 9 C-38.72211755 7.01340457 -34.92470653 6.4460733 -31.2109375 5.5625 C-28.92006583 4.97966339 -26.68937353 4.28070551 -24.4375 3.5625 C-20.04695754 2.23099801 -15.61413664 1.18711338 -11.125 0.25 C-9.24167969 -0.14445312 -9.24167969 -0.14445312 -7.3203125 -0.546875 C-4.37843359 -0.94835495 -2.73433227 -1.01678688 0 0 Z " fill="#DCA84E" transform="translate(222,60)"/>
<path d="M0 0 C0.66 0.99 1.32 1.98 2 3 C0.27522672 5.22379476 -1.45168355 7.44581792 -3.18359375 9.6640625 C-4.57424781 11.45247352 -5.94732461 13.25456503 -7.3125 15.0625 C-7.869375 15.701875 -8.42625 16.34125 -9 17 C-9.66 17 -10.32 17 -11 17 C-11.2371875 17.56203125 -11.474375 18.1240625 -11.71875 18.703125 C-16.35575613 27.01580673 -25.54817654 33.32393022 -33 39 C-33.495 37.515 -33.495 37.515 -34 36 C-35.32 36.66 -36.64 37.32 -38 38 C-38.33 37.34 -38.66 36.68 -39 36 C-38.34 36 -37.68 36 -37 36 C-37.495 34.515 -37.495 34.515 -38 33 C-37.01 32.505 -37.01 32.505 -36 32 C-35.01 32.33 -34.02 32.66 -33 33 C-32.67 32.01 -32.34 31.02 -32 30 C-31.12988281 29.74089844 -30.25976562 29.48179687 -29.36328125 29.21484375 C-24.88263857 27.59640023 -22.43728957 24.95310144 -19.1875 21.5625 C-18.31061523 20.68368164 -18.31061523 20.68368164 -17.41601562 19.78710938 C-14.01020387 16.35611109 -14.01020387 16.35611109 -12 12 C-10.546875 10.60546875 -10.546875 10.60546875 -8.75 9.1875 C-5.35998743 6.39860306 -2.70890296 3.44769467 0 0 Z " fill="#C4893B" transform="translate(405,362)"/>
<path d="M0 0 C14.60412611 1.956149 30.93084892 17.61335465 41.31640625 27.46875 C43.59642411 29.61933453 45.91902274 31.66613724 48.3125 33.6875 C56.43914139 40.78977483 56.43914139 40.78977483 59 45 C58.68359375 47.23828125 58.68359375 47.23828125 58 49 C55.33201659 47.05309319 53.29301063 45.50610927 51.625 42.625 C49.73051255 39.56467412 47.54034896 37.75404542 44.78515625 35.484375 C42.34176314 33.45266957 40.14815453 31.3434413 38 29 C38 28.34 38 27.68 38 27 C37.4225 26.731875 36.845 26.46375 36.25 26.1875 C33.94449957 24.97070811 31.97943808 23.69666121 30 22 C30 21.34 30 20.68 30 20 C28.9171875 19.61714844 28.9171875 19.61714844 27.8125 19.2265625 C24.82045972 17.92170049 22.5892218 16.35638619 20 14.375 C14.70718613 10.42341689 9.23397761 7.01818442 3.5546875 3.6640625 C1 2 1 2 0 0 Z " fill="#B0813C" transform="translate(342,78)"/>
<path d="M0 0 C-0.1875 1.8125 -0.1875 1.8125 -1 4 C-1.721875 4.4125 -2.44375 4.825 -3.1875 5.25 C-5.97384331 6.98372473 -6.97013614 8.13243386 -8.8125 10.75 C-11.51965668 14.56526744 -14.54684942 17.41676916 -18.16796875 20.359375 C-20.676861 22.60614418 -22.49568135 24.9913627 -24 28 C-24.75667969 28.14050781 -25.51335937 28.28101563 -26.29296875 28.42578125 C-29.42450617 29.09004676 -30.86306327 30.15899024 -33.3125 32.1875 C-34.09496094 32.81914062 -34.87742187 33.45078125 -35.68359375 34.1015625 C-36.44800781 34.72804688 -37.21242188 35.35453125 -38 36 C-44.53520153 41.25404321 -51.50579711 45.25289855 -59 49 C-59.66 48.34 -60.32 47.68 -61 47 C-60.030625 46.48953125 -59.06125 45.9790625 -58.0625 45.453125 C-38.71199332 35.04787081 -22.39771913 21.43850577 -7.78027344 5.09985352 C-3.20750196 0 -3.20750196 0 0 0 Z " fill="#9B6F37" transform="translate(390,355)"/>
<path d="M0 0 C0.33 0 0.66 0 1 0 C2.0626018 16.42180999 2.11829196 32.79874063 2.0625 49.25 C2.05747076 51.85676997 2.05291039 54.46354088 2.04882812 57.0703125 C2.03794507 63.38022946 2.02132177 69.69011012 2 76 C1.34 76 0.68 76 0 76 C-0.31058389 70.92839691 -0.61354111 65.8564176 -0.90942383 60.78393555 C-1.01116532 59.05822454 -1.11499382 57.33263526 -1.22094727 55.60717773 C-1.3728374 53.12773173 -1.51722902 50.64794555 -1.66015625 48.16796875 C-1.73351952 47.01001045 -1.73351952 47.01001045 -1.80836487 45.82865906 C-1.99064607 42.55480446 -2.0473025 40.14190749 -1 37 C-0.8460737 34.19839498 -0.74261955 31.41701575 -0.68359375 28.61328125 C-0.66281265 27.79627243 -0.64203156 26.97926361 -0.62062073 26.13749695 C-0.55526921 23.52924966 -0.49630727 20.92090225 -0.4375 18.3125 C-0.39430108 16.54360946 -0.35068635 14.77472903 -0.30664062 13.00585938 C-0.19960257 8.67067537 -0.09829456 4.33539071 0 0 Z " fill="#E7B74F" transform="translate(192,265)"/>
<path d="M0 0 C2.34822025 2.18645205 4.00931184 4.41394386 5.6796875 7.1484375 C6.44599487 8.39463867 6.44599487 8.39463867 7.2277832 9.66601562 C7.77136475 10.55998047 8.31494629 11.45394531 8.875 12.375 C10.03201033 14.2685603 11.18957956 16.16177919 12.34765625 18.0546875 C12.94465332 19.03147461 13.54165039 20.00826172 14.15673828 21.01464844 C15.99297513 23.9886225 17.86323643 26.93817132 19.74609375 29.8828125 C20.34373535 30.82463379 20.94137695 31.76645508 21.55712891 32.73681641 C22.70848171 34.54919625 23.86805648 36.35638458 25.03662109 38.15771484 C25.55691895 38.98223145 26.0772168 39.80674805 26.61328125 40.65625 C27.30611206 41.73616211 27.30611206 41.73616211 28.01293945 42.83789062 C29.17226257 45.37733299 29.18479335 47.23929023 29 50 C26.01731072 46.12250394 23.03189724 42.18519416 20.9375 37.75 C19.99154148 35.65383728 19.99154148 35.65383728 17 34 C16.01 34 15.02 34 14 34 C14 32.68 14 31.36 14 30 C14.66 30 15.32 30 16 30 C15.2884375 29.4740625 15.2884375 29.4740625 14.5625 28.9375 C12.32126175 26.15836457 12.32882342 23.4855283 12 20 C11.01 19.67 10.02 19.34 9 19 C7.24609375 16.12890625 7.24609375 16.12890625 5.4375 12.5625 C3.17661783 7.94895208 3.17661783 7.94895208 0 4 C0 2.68 0 1.36 0 0 Z " fill="#D3AA50" transform="translate(339,198)"/>
<path d="M0 0 C1.5625 1.25 1.5625 1.25 3 3 C2.54954622 6.34796726 1.0543017 8.87509068 -0.66015625 11.74609375 C-1.20293213 12.66044189 -1.74570801 13.57479004 -2.30493164 14.5168457 C-2.8849292 15.48066162 -3.46492676 16.44447754 -4.0625 17.4375 C-4.9450647 18.91126099 -4.9450647 18.91126099 -5.84545898 20.41479492 C-7.0211982 22.37575825 -8.19897746 24.33550003 -9.37890625 26.29394531 C-10.77245206 28.62015943 -12.14295378 30.9570883 -13.5 33.3046875 C-14.18721738 34.47412446 -14.87469039 35.64341126 -15.5625 36.8125 C-16.14128906 37.80894531 -16.72007812 38.80539062 -17.31640625 39.83203125 C-19 42 -19 42 -21.21484375 42.82421875 C-21.80394531 42.88222656 -22.39304687 42.94023437 -23 43 C-23.3125 40.6875 -23.3125 40.6875 -23 38 C-21.824375 37.319375 -21.824375 37.319375 -20.625 36.625 C-16.9806319 34.3689626 -17.06379362 32.04241576 -16 28 C-14.68870078 26.64499081 -13.35308313 25.31328657 -12 24 C-10.5106477 21.40442588 -9.260746 18.71219307 -8 16 C-7.33704475 14.6648174 -6.67141582 13.33094817 -6 12 C-5.67 12.33 -5.34 12.66 -5 13 C-2.25477117 8.57221156 -0.51525603 5.28137429 0 0 Z " fill="#BC8739" transform="translate(368,245)"/>
<path d="M0 0 C1 2 1 2 0.4765625 3.98828125 C0.19554687 4.75527344 -0.08546875 5.52226562 -0.375 6.3125 C-1.51177605 9.53077009 -2.45472843 12.61931629 -3 16 C-3.99 16.33 -4.98 16.66 -6 17 C-7.01754868 18.8653245 -7.01754868 18.8653245 -7.6875 21.0625 C-7.93886719 21.79597656 -8.19023437 22.52945312 -8.44921875 23.28515625 C-8.63097656 23.85105469 -8.81273437 24.41695313 -9 25 C-9.66 25 -10.32 25 -11 25 C-11 25.66 -11 26.32 -11 27 C-10.34 27 -9.68 27 -9 27 C-9 27.66 -9 28.32 -9 29 C-9.66 29 -10.32 29 -11 29 C-11.33 29.99 -11.66 30.98 -12 32 C-14.5625 33.1875 -14.5625 33.1875 -17 34 C-17 33.34 -17 32.68 -17 32 C-17.66 31.67 -18.32 31.34 -19 31 C-16.61639908 27.06679203 -14.23193699 23.13410798 -11.84667969 19.2019043 C-11.03557091 17.86448252 -10.22469653 16.52691857 -9.4140625 15.18920898 C-8.24801424 13.26508646 -7.08112057 11.34147891 -5.9140625 9.41796875 C-5.55253082 8.82098679 -5.19099915 8.22400482 -4.81851196 7.6089325 C-3.25724149 5.03732624 -1.66919444 2.50379166 0 0 Z " fill="#D7AA54" transform="translate(314,273)"/>
<path d="M0 0 C-1.35638823 4.0691647 -4.14117858 5.74236635 -7.4375 8.25 C-8.39692505 8.98851196 -8.39692505 8.98851196 -9.37573242 9.74194336 C-11.24310784 11.17137059 -13.11929994 12.58816819 -15 14 C-15.84304688 14.63550781 -16.68609375 15.27101563 -17.5546875 15.92578125 C-22.70635996 19.66029813 -28.11212274 22.97433096 -33.5625 26.25 C-34.25899658 26.67482666 -34.95549316 27.09965332 -35.6730957 27.53735352 C-40.59839279 30.44468305 -45.51464051 32.39499775 -51 34 C-51 33.34 -51 32.68 -51 32 C-50.01902344 31.53851563 -49.03804688 31.07703125 -48.02734375 30.6015625 C-32.65631908 23.23107741 -16.07705843 13.74732149 -4.296875 1.18359375 C-3 0 -3 0 0 0 Z " fill="#B58136" transform="translate(383,393)"/>
<path d="M0 0 C3.67446149 1.58337451 6.31205938 3.8772082 9.3125 6.5 C25.21786968 20.02141512 43.49171423 29.75893323 63 37 C59.61725734 38.12758089 58.23221777 37.81750262 54.8125 37.0625 C53.91144531 36.86785156 53.01039063 36.67320312 52.08203125 36.47265625 C51.39496094 36.31667969 50.70789063 36.16070312 50 36 C50 35.34 50 34.68 50 34 C49.01 34 48.02 34 47 34 C47 33.34 47 32.68 47 32 C46.05125 31.79375 45.1025 31.5875 44.125 31.375 C39.83357174 30.15505769 36.34133594 27.94677719 32.578125 25.59765625 C28.79776079 23.25497601 24.90267829 21.13044757 21 19 C21 18.34 21 17.68 21 17 C20.34 16.814375 19.68 16.62875 19 16.4375 C15.31787948 14.67315059 12.80591966 12.26245259 9.8671875 9.4609375 C8.00134729 7.6918903 8.00134729 7.6918903 5 8 C4.731875 7.360625 4.46375 6.72125 4.1875 6.0625 C3.11332248 3.66868314 3.11332248 3.66868314 0 3 C0 2.01 0 1.02 0 0 Z " fill="#966D3A" transform="translate(130,375)"/>
<path d="M0 0 C4.68303676 0.31437052 8.92983445 0.81273522 13.3125 2.5625 C16.96150783 4.2421388 16.96150783 4.2421388 21 4 C21 4.66 21 5.32 21 6 C21.680625 6.0825 22.36125 6.165 23.0625 6.25 C26.12041183 7.03074345 28.42037771 8.33467321 31.10546875 9.9609375 C33.07400575 11.04058872 35.0032113 11.77275792 37.125 12.5 C39.94635479 13.47828586 41.1706709 14.14933704 43.5 16.1875 C47.10970616 18.80453697 49.61446291 18.29732455 54 18 C54 19.98 54 21.96 54 24 C51.11673092 23.39071888 48.89884729 22.50738156 46.375 20.99609375 C45.67842285 20.58891113 44.9818457 20.18172852 44.26416016 19.76220703 C43.5169873 19.32505371 42.76981445 18.88790039 42 18.4375 C28.75983906 10.88606707 14.54391207 5.49324113 0 1 C0 0.67 0 0.34 0 0 Z " fill="#E0BD70" transform="translate(294,85)"/>
<path d="M0 0 C0.66 0.33 1.32 0.66 2 1 C1.625 3.9375 1.625 3.9375 1 7 C0.01 7.495 0.01 7.495 -1 8 C-2.55203911 11.6758821 -3.46534385 14.19010598 -2 18 C-2.61875 18.2475 -3.2375 18.495 -3.875 18.75 C-6.45751682 20.26912754 -6.79710858 21.2934943 -8 24 C-9.32346506 26.0065438 -10.65729179 28.00628175 -12 30 C-12.44085938 30.76828125 -12.88171875 31.5365625 -13.3359375 32.328125 C-15.23425016 35.37611998 -17.39262349 38.05199637 -19.6875 40.8125 C-20.49574219 41.78832031 -21.30398438 42.76414062 -22.13671875 43.76953125 C-22.75160156 44.50558594 -23.36648438 45.24164063 -24 46 C-24.66 45.67 -25.32 45.34 -26 45 C-25.59910156 44.52433594 -25.19820313 44.04867187 -24.78515625 43.55859375 C-15.01411093 31.52757876 -8.37607796 18.02125538 -2 4 C-1.34259088 2.66207793 -0.68169676 1.32571179 0 0 Z " fill="#8F6332" transform="translate(412,310)"/>
<path d="M0 0 C-2.7464121 1.41344652 -5.23766971 2.42212293 -8.25 3.125 C-9.4875 3.41375 -10.725 3.7025 -12 4 C-12 4.66 -12 5.32 -12 6 C-14.31 6 -16.62 6 -19 6 C-19 5.34 -19 4.68 -19 4 C-24.61 4 -30.22 4 -36 4 C-36 3.34 -36 2.68 -36 2 C-23.95639339 -0.07201834 -12.19584332 -0.22907956 0 0 Z " fill="#CE983E" transform="translate(294,307)"/>
<path d="M0 0 C0.66 0.33 1.32 0.66 2 1 C1.23816406 1.73863281 0.47632813 2.47726563 -0.30859375 3.23828125 C-10.89690505 13.59922032 -19.74958775 24.71708289 -28 37 C-28.93972656 38.39798828 -28.93972656 38.39798828 -29.8984375 39.82421875 C-31.27227782 41.87852928 -32.64023512 43.93635683 -34 46 C-34.66 45.34 -35.32 44.68 -36 44 C-35.875 42 -35.875 42 -35 40 C-34.401875 39.731875 -33.80375 39.46375 -33.1875 39.1875 C-29.85586227 37.37889666 -28.67796984 34.25723557 -27 31 C-24.52908468 26.2882546 -21.76932913 22.76932913 -18 19 C-18 18.01 -18 17.02 -18 16 C-17.4225 15.95875 -16.845 15.9175 -16.25 15.875 C-12.87266958 14.56159373 -11.91241859 12.01350808 -10 9 C-8.37253306 7.29503463 -6.71108689 5.62102968 -5 4 C-4.34 3.34 -3.68 2.68 -3 2 C-2.01 1.34 -1.02 0.68 0 0 Z " fill="#EBCE80" transform="translate(131,125)"/>
<path d="M0 0 C4.19894339 1.48289822 7.70318141 3.65869754 11.375 6.125 C20.97815345 12.42859524 31.03549604 18.41975381 42 22 C42 22.66 42 23.32 42 24 C37.2750227 23.33684529 33.33230121 21.52190339 29.0625 19.5 C28.31830811 19.14905273 27.57411621 18.79810547 26.80737305 18.43652344 C19.45379539 14.87998327 12.74559081 10.5949479 6 6 C5.43071777 5.64228516 4.86143555 5.28457031 4.27490234 4.91601562 C2.81739928 3.99351296 1.40404636 3.00198811 0 2 C0 1.34 0 0.68 0 0 Z " fill="#B17D30" transform="translate(133,406)"/>
<path d="M0 0 C3.79882981 1.46735915 4.97915449 3.2042565 6.875 6.75 C9.30726213 11.13771517 11.86173157 15.37780792 14.6015625 19.58203125 C15.24109863 20.56526367 15.88063477 21.54849609 16.53955078 22.56152344 C17.84035753 24.55274592 19.14857355 26.53914891 20.46435547 28.52050781 C21.36371826 29.90447754 21.36371826 29.90447754 22.28125 31.31640625 C22.82845703 32.14599854 23.37566406 32.97559082 23.93945312 33.83032227 C25 36 25 36 24 39 C20.13777795 34.51246581 17.24441946 29.58128045 14.25 24.5 C13.18815789 22.71184875 12.12565614 20.92408905 11.0625 19.13671875 C10.28519531 17.82840088 10.28519531 17.82840088 9.4921875 16.49365234 C6.82722381 12.04012827 4.07922713 7.63892633 1.328125 3.23828125 C0 1 0 1 0 0 Z " fill="#C79948" transform="translate(297,197)"/>
<path d="M0 0 C0.33 0 0.66 0 1 0 C1.08636719 1.27230469 1.17273438 2.54460937 1.26171875 3.85546875 C2.52509697 20.36012789 5.59193428 36.25072986 11.30078125 51.8203125 C12 54 12 54 12 57 C11.01 57 10.02 57 9 57 C8.89042969 56.38253906 8.78085938 55.76507813 8.66796875 55.12890625 C7.83969345 50.70470405 6.89919292 46.49029024 5.375 42.25 C4.12684919 38.71879947 3.70927899 35.77937308 4 32 C3.34 32 2.68 32 2 32 C0.52682142 21.25368837 -0.28435784 10.85299084 0 0 Z " fill="#926B39" transform="translate(77,257)"/>
<path d="M0 0 C5.17028077 0.65557809 10.13157172 1.6870905 15.1875 2.9375 C25.73304586 5.47395845 36.17563973 7.19030376 47 8 C39.69940061 12.65234275 27.69811086 8.93075616 19.62109375 7.59765625 C16.1939053 6.81619599 13.13692035 5.56846017 10 4 C10.33 4.99 10.66 5.98 11 7 C10.01 7.33 9.02 7.66 8 8 C7.67 6.35 7.34 4.7 7 3 C5.824375 2.814375 5.824375 2.814375 4.625 2.625 C2 2 2 2 0 0 Z " fill="#A5793D" transform="translate(193,413)"/>
<path d="M0 0 C0.66 0.33 1.32 0.66 2 1 C0.87926138 1.83905565 -0.24674547 2.67107831 -1.375 3.5 C-2.00148438 3.9640625 -2.62796875 4.428125 -3.2734375 4.90625 C-5 6 -5 6 -7 6 C-7 6.66 -7 7.32 -7 8 C-7.66 8 -8.32 8 -9 8 C-9.495 7.01 -9.495 7.01 -10 6 C-12.08343851 6.47870914 -14.16674689 6.95798469 -16.25 7.4375 C-17.41015625 7.70433594 -18.5703125 7.97117187 -19.765625 8.24609375 C-21.49886269 8.65009722 -23.23068785 9.06415716 -24.9453125 9.54101562 C-27.072248 10.01613905 -28.9331559 10.11414276 -31.109375 10.09765625 C-31.86347656 10.09443359 -32.61757813 10.09121094 -33.39453125 10.08789062 C-34.17183594 10.07951172 -34.94914062 10.07113281 -35.75 10.0625 C-36.54277344 10.05798828 -37.33554687 10.05347656 -38.15234375 10.04882812 C-40.10159508 10.03708565 -42.05080738 10.01915146 -44 10 C-44 9.67 -44 9.34 -44 9 C-42.96746094 8.92523438 -41.93492187 8.85046875 -40.87109375 8.7734375 C-26.88468856 7.57803212 -13.31870411 4.43956804 0 0 Z " fill="#A1763B" transform="translate(306,412)"/>
<path d="M0 0 C0.66 0.33 1.32 0.66 2 1 C-1.34146301 6.01219451 -5.69485797 7.35934328 -11.125 9.6875 C-12.17945313 10.14511719 -13.23390625 10.60273437 -14.3203125 11.07421875 C-15.64675781 11.53248047 -15.64675781 11.53248047 -17 12 C-17.66 11.67 -18.32 11.34 -19 11 C-18.8125 8.625 -18.8125 8.625 -18 6 C-14.61371801 4.05032249 -10.71344737 3.40411494 -6.9296875 2.51171875 C-4.80641836 1.9941374 -4.80641836 1.9941374 -2.125 0.8125 C-1.42375 0.544375 -0.7225 0.27625 0 0 Z " fill="#CF973F" transform="translate(198,63)"/>
<path d="M0 0 C1.32 0.33 2.64 0.66 4 1 C3.67 1.33 3.34 1.66 3 2 C2.92399789 4.0807479 2.91701117 6.16405908 2.9375 8.24609375 C2.94587891 9.55118896 2.95425781 10.85628418 2.96289062 12.20092773 C2.96909424 12.89370819 2.97529785 13.58648865 2.98168945 14.30026245 C3.08677839 26.56641852 2.93998696 38.76338401 2 51 C1.67 51 1.34 51 1 51 C0.25563141 33.99038594 -0.15224767 17.02597388 0 0 Z " fill="#FFE47C" transform="translate(161,232)"/>
<path d="M0 0 C0.87785156 0.09796875 1.75570313 0.1959375 2.66015625 0.296875 C3.97306641 0.42835937 3.97306641 0.42835937 5.3125 0.5625 C7.72265625 1.046875 7.72265625 1.046875 10.72265625 3.046875 C10.39265625 4.036875 10.06265625 5.026875 9.72265625 6.046875 C10.71265625 6.376875 11.70265625 6.706875 12.72265625 7.046875 C11.59988281 6.91410156 10.47710937 6.78132813 9.3203125 6.64453125 C1.79021393 5.75547375 -5.73959886 4.86917444 -13.27734375 4.046875 C-13.27734375 3.716875 -13.27734375 3.386875 -13.27734375 3.046875 C-12.65085937 2.99789062 -12.024375 2.94890625 -11.37890625 2.8984375 C-10.56164062 2.82367188 -9.744375 2.74890625 -8.90234375 2.671875 C-8.09023438 2.60226563 -7.278125 2.53265625 -6.44140625 2.4609375 C-3.48689548 1.895634 -3.06876928 0.06316506 0 0 Z " fill="#DAA24A" transform="translate(278.27734375,58.953125)"/>
<path d="M0 0 C0.33 0 0.66 0 1 0 C1.06058594 1.28777344 1.12117187 2.57554687 1.18359375 3.90234375 C1.26798247 5.58074159 1.3526313 7.25912636 1.4375 8.9375 C1.47681641 9.78763672 1.51613281 10.63777344 1.55664062 11.51367188 C1.59853516 12.32255859 1.64042969 13.13144531 1.68359375 13.96484375 C1.72025146 14.7137085 1.75690918 15.46257324 1.79467773 16.23413086 C1.81771063 18.02461326 1.81771063 18.02461326 3 19 C3.15582303 20.34015221 3.25044142 21.68758903 3.31640625 23.03515625 C3.35830078 23.84404297 3.40019531 24.65292969 3.44335938 25.48632812 C3.48267578 26.33646484 3.52199219 27.18660156 3.5625 28.0625 C3.60568359 28.91650391 3.64886719 29.77050781 3.69335938 30.65039062 C3.79976702 32.76672037 3.90041731 34.88333813 4 37 C2.68 37 1.36 37 0 37 C0 24.79 0 12.58 0 0 Z " fill="#E4AE4D" transform="translate(160,302)"/>
<path d="M0 0 C13.86 0.495 13.86 0.495 28 1 C27.01 2.485 27.01 2.485 26 4 C23.84521484 4.34057617 23.84521484 4.34057617 21.2109375 4.29296875 C20.26992187 4.28330078 19.32890625 4.27363281 18.359375 4.26367188 C17.37453125 4.23853516 16.3896875 4.21339844 15.375 4.1875 C13.88613281 4.16719727 13.88613281 4.16719727 12.3671875 4.14648438 C9.91091928 4.11105743 7.45572715 4.06166196 5 4 C5.33 3.01 5.66 2.02 6 1 C4.02 1 2.04 1 0 1 C0 0.67 0 0.34 0 0 Z " fill="#CF943E" transform="translate(232,57)"/>
<path d="M0 0 C0.66 0.33 1.32 0.66 2 1 C0.4233204 3.73306147 -1.16252391 6.46069767 -2.75 9.1875 C-3.41515625 10.34088867 -3.41515625 10.34088867 -4.09375 11.51757812 C-6.47916734 15.6043593 -8.906916 19.39381094 -12 23 C-11.60151712 19.0948678 -11.01099435 15.74335987 -9.375 12.1875 C-8.92125 11.135625 -8.4675 10.08375 -8 9 C-8.33 8.34 -8.66 7.68 -9 7 C-7.68 7 -6.36 7 -5 7 C-4.67 6.01 -4.34 5.02 -4 4 C-3.34 4 -2.68 4 -2 4 C-2 3.34 -2 2.68 -2 2 C-1.34 2 -0.68 2 0 2 C0 1.34 0 0.68 0 0 Z " fill="#AC7731" transform="translate(329,316)"/>
<path d="M0 0 C-0.33 0.99 -0.66 1.98 -1 3 C-0.01 3.33 0.98 3.66 2 4 C-2.95 4.66 -7.9 5.32 -13 6 C-13.33 4.35 -13.66 2.7 -14 1 C-12.41913952 0.63495397 -10.83516093 0.28339494 -9.25 -0.0625 C-8.36828125 -0.25972656 -7.4865625 -0.45695312 -6.578125 -0.66015625 C-4.01320972 -0.99825872 -2.42908361 -0.81158635 0 0 Z " fill="#D9A047" transform="translate(222,60)"/>
<path d="M0 0 C17.49 0 34.98 0 53 0 C53.66 1.32 54.32 2.64 55 4 C54.16888702 3.51486435 54.16888702 3.51486435 53.32098389 3.01992798 C50.65991541 1.85055399 48.76361171 1.72421206 45.86425781 1.68115234 C44.84350159 1.66128265 43.82274536 1.64141296 42.77105713 1.62094116 C41.12868073 1.60361435 41.12868073 1.60361435 39.453125 1.5859375 C37.76361725 1.55688828 37.76361725 1.55688828 36.03997803 1.5272522 C32.44339566 1.46748479 28.84678124 1.42108181 25.25 1.375 C22.81118398 1.33681766 20.3723814 1.29776578 17.93359375 1.2578125 C11.95584856 1.16178551 5.97802234 1.07672952 0 1 C0 0.67 0 0.34 0 0 Z " fill="#DEA843" transform="translate(265,162)"/>
<path d="M0 0 C0.86625 0.25265625 1.7325 0.5053125 2.625 0.765625 C5.05357469 1.7722053 6.30907999 2.76984367 8 4.75 C7.34 4.75 6.68 4.75 6 4.75 C6 5.41 6 6.07 6 6.75 C-0.10737442 4.98536928 -6.07433507 3.05442525 -12 0.75 C-11.401875 0.605625 -10.80375 0.46125 -10.1875 0.3125 C-4.11464968 -1.24909008 -4.11464968 -1.24909008 0 0 Z " fill="#C9923A" transform="translate(320,69.25)"/>
<path d="M0 0 C3.3 0 6.6 0 10 0 C10 0.66 10 1.32 10 2 C17.59 2.33 25.18 2.66 33 3 C33 3.33 33 3.66 33 4 C32.18845459 4.02505615 31.37690918 4.0501123 30.54077148 4.07592773 C26.83954284 4.19245817 23.13853319 4.314925 19.4375 4.4375 C17.52227539 4.49647461 17.52227539 4.49647461 15.56835938 4.55664062 C14.32763672 4.59853516 13.08691406 4.64042969 11.80859375 4.68359375 C10.10401001 4.73858032 10.10401001 4.73858032 8.36499023 4.79467773 C4.86818455 5.00804301 1.46008025 5.45954277 -2 6 C-2 5.34 -2 4.68 -2 4 C-0.02 3.67 1.96 3.34 4 3 C2.68 2.01 1.36 1.02 0 0 Z " fill="#E4B054" transform="translate(228,58)"/>
<path d="M0 0 C2.2477975 2.05233685 3.0022242 3.00667261 4 6 C3.11962891 7.90112305 3.11962891 7.90112305 1.7265625 10.01171875 C1.2315625 10.76904297 0.7365625 11.52636719 0.2265625 12.30664062 C-0.30195313 13.09232422 -0.83046875 13.87800781 -1.375 14.6875 C-1.89578125 15.48478516 -2.4165625 16.28207031 -2.953125 17.10351562 C-5.75629747 21.34821591 -5.75629747 21.34821591 -7 23 C-7.33 23 -7.66 23 -8 23 C-8 21.35 -8 19.7 -8 18 C-7.34 18 -6.68 18 -6 18 C-5.62875 16.9790625 -5.62875 16.9790625 -5.25 15.9375 C-4.25045107 13.58856001 -3.21653622 11.70324929 -1.875 9.5625 C0.06273816 6.28987555 0.37419975 3.83554747 0 0 Z " fill="#C09447" transform="translate(281,243)"/>
<path d="M0 0 C1.32 0 2.64 0 4 0 C4.33 0.99 4.66 1.98 5 3 C6.65 2.67 8.3 2.34 10 2 C10 1.34 10 0.68 10 0 C10.66 0 11.32 0 12 0 C12 0.66 12 1.32 12 2 C12.66 2.33 13.32 2.66 14 3 C10.58700991 3.8693381 7.16916192 4.71779224 3.75 5.5625 C2.29787109 5.9327832 2.29787109 5.9327832 0.81640625 6.31054688 C-0.11816406 6.53935547 -1.05273438 6.76816406 -2.015625 7.00390625 C-3.30388184 7.32597046 -3.30388184 7.32597046 -4.61816406 7.65454102 C-7.09236484 8.0133965 -8.64810343 7.78317203 -11 7 C-10.28972656 6.82984375 -9.57945312 6.6596875 -8.84765625 6.484375 C-7.92855469 6.24203125 -7.00945312 5.9996875 -6.0625 5.75 C-5.14597656 5.51796875 -4.22945312 5.2859375 -3.28515625 5.046875 C-0.80848559 4.23367434 -0.80848559 4.23367434 -0.18359375 1.890625 C-0.12300781 1.26671875 -0.06242188 0.6428125 0 0 Z " fill="#F4D881" transform="translate(209,79)"/>
<path d="M0 0 C0.99 0 1.98 0 3 0 C3 1.32 3 2.64 3 4 C-9.87 4 -22.74 4 -36 4 C-36 3.67 -36 3.34 -36 3 C-24.12 2.67 -12.24 2.34 0 2 C0 1.34 0 0.68 0 0 Z " fill="#BA7A27" transform="translate(314,336)"/>
<path d="M0 0 C0.33 0 0.66 0 1 0 C1 5.94 1 11.88 1 18 C1.66 18 2.32 18 3 18 C3.05386629 20.12472576 3.09273071 22.24983652 3.125 24.375 C3.14820313 25.55835938 3.17140625 26.74171875 3.1953125 27.9609375 C3 31 3 31 1 33 C-0.27364614 22.01480208 -0.10085216 11.04098375 0 0 Z " fill="#F6C45C" transform="translate(160,281)"/>
<path d="M0 0 C2.72789435 3.1475704 5.03419872 6.48202166 7.25 10 C7.77078125 10.825 8.2915625 11.65 8.828125 12.5 C10.10947443 15.23354544 10.23419483 17.01933853 10 20 C6.59676371 15.57579282 3.36631728 11.0706799 1 6 C0.608125 5.29875 0.21625 4.5975 -0.1875 3.875 C-0.5896875 2.946875 -0.5896875 2.946875 -1 2 C-0.67 1.34 -0.34 0.68 0 0 Z " fill="#C99A47" transform="translate(358,228)"/>
<path d="M0 0 C4.85158687 1.51849354 9.42890362 3.43197099 14.0625 5.5 C18.350113 7.40295173 22.62821628 9.29560089 27 11 C23.61725734 12.12758089 22.23221777 11.81750262 18.8125 11.0625 C17.91144531 10.86785156 17.01039063 10.67320312 16.08203125 10.47265625 C15.39496094 10.31667969 14.70789063 10.16070312 14 10 C14 9.34 14 8.68 14 8 C13.01 8 12.02 8 11 8 C11 7.34 11 6.68 11 6 C9.9275 5.7525 8.855 5.505 7.75 5.25 C4.00350563 4.00116854 2.47926118 2.97511342 0 0 Z " fill="#A3773E" transform="translate(166,401)"/>
<path d="M0 0 C0.66 0 1.32 0 2 0 C0.45173401 4.95757898 -1.51780938 9.63810401 -3.625 14.375 C-3.94984375 15.11105469 -4.2746875 15.84710938 -4.609375 16.60546875 C-5.40384503 18.40470969 -6.20158771 20.20250496 -7 22 C-8 19 -8 19 -8 15 C-7.34 15 -6.68 15 -6 15 C-6.05929688 14.28457031 -6.11859375 13.56914062 -6.1796875 12.83203125 C-5.9619652 9.40053853 -4.92593151 7.5957028 -3.125 4.6875 C-2.59132813 3.80449219 -2.05765625 2.92148438 -1.5078125 2.01171875 C-1.01023437 1.34785156 -0.51265625 0.68398437 0 0 Z " fill="#E1BD6D" transform="translate(94,172)"/>
<path d="M0 0 C0.99 0.33 1.98 0.66 3 1 C2.56429687 1.61746094 2.12859375 2.23492187 1.6796875 2.87109375 C-2.29753648 8.52701616 -6.19364866 14.22773094 -10 20 C-10.66 19.34 -11.32 18.68 -12 18 C-11.875 16 -11.875 16 -11 14 C-10.401875 13.731875 -9.80375 13.46375 -9.1875 13.1875 C-5.85359702 11.37766695 -4.6928198 8.24631286 -3 5 C-2.00522955 3.33020674 -1.00739746 1.66220581 0 0 Z " fill="#E5C778" transform="translate(107,151)"/>
<path d="M0 0 C2.67007782 0.36358506 3.72519889 0.64776874 5.4140625 2.8125 C5.81367188 3.534375 6.21328125 4.25625 6.625 5 C8.23227894 8.09166609 8.23227894 8.09166609 11 10 C12.32421875 12.21484375 12.32421875 12.21484375 13.6875 14.9375 C14.14511719 15.83339844 14.60273438 16.72929687 15.07421875 17.65234375 C15.37972656 18.42707031 15.68523437 19.20179688 16 20 C15.67 20.66 15.34 21.32 15 22 C14.41992188 21.154375 13.83984375 20.30875 13.2421875 19.4375 C9.27071288 13.66545329 5.29044763 7.93022513 0.99609375 2.390625 C0 1 0 1 0 0 Z " fill="#9E743C" transform="translate(383,141)"/>
<path d="M0 0 C-0.54339792 4.56454251 -1.79463821 7.9728176 -4 12 C-4.33 10.68 -4.66 9.36 -5 8 C-5.66 8 -6.32 8 -7 8 C-6.42415568 5.61435923 -5.77772405 3.33317216 -5 1 C-3 0 -3 0 0 0 Z " fill="#BE8438" transform="translate(431,320)"/>
<path d="M0 0 C0.66 0.66 1.32 1.32 2 2 C-6.42857143 4.28571429 -6.42857143 4.28571429 -11 4 C-11 3.34 -11 2.68 -11 2 C-11.66 1.67 -12.32 1.34 -13 1 C-8.30368284 -1.49491849 -5.06370175 -0.99613805 0 0 Z " fill="#CF953D" transform="translate(232,59)"/>
<path d="M0 0 C1.5625 1.25 1.5625 1.25 3 3 C2.57618191 6.88499918 0.40776348 9.95428655 -1.5625 13.25 C-2.20316406 14.32765625 -2.84382813 15.4053125 -3.50390625 16.515625 C-3.99761719 17.33546875 -4.49132812 18.1553125 -5 19 C-5.33 17.68 -5.66 16.36 -6 15 C-5.34 15 -4.68 15 -4 15 C-4.061875 14.2575 -4.12375 13.515 -4.1875 12.75 C-3.9631595 9.45967264 -2.9513873 8.57583124 -1 6 C-0.27954633 2.84881675 -0.27954633 2.84881675 0 0 Z " fill="#B68943" transform="translate(368,245)"/>
<path d="M0 0 C0.99 0 1.98 0 3 0 C4.04892238 1.63631892 5.04906703 3.30485863 6 5 C6.66 5.33 7.32 5.66 8 6 C9.6875 8.375 9.6875 8.375 11 11 C10.67 11.99 10.34 12.98 10 14 C9.01 14 8.02 14 7 14 C4.66666667 9.33333333 2.33333333 4.66666667 0 0 Z " fill="#C69847" transform="translate(321,236)"/>
<path d="M0 0 C0.33 0.99 0.66 1.98 1 3 C1.66 3.33 2.32 3.66 3 4 C1.56705502 4.84114171 0.12845595 5.67265687 -1.3125 6.5 C-2.51326172 7.19609375 -2.51326172 7.19609375 -3.73828125 7.90625 C-6 9 -6 9 -9 9 C-7.45665977 5.21180126 -4.44676575 0 0 0 Z " fill="#DBA84E" transform="translate(166,76)"/>
<path d="M0 0 C0.66 0 1.32 0 2 0 C2 7.26 2 14.52 2 22 C-1 19 -1 19 -1.2487793 16.9152832 C-1.19117432 16.13499756 -1.13356934 15.35471191 -1.07421875 14.55078125 C-1.01943359 13.70322266 -0.96464844 12.85566406 -0.90820312 11.98242188 C-0.79895508 10.66081055 -0.79895508 10.66081055 -0.6875 9.3125 C-0.62626953 8.41982422 -0.56503906 7.52714844 -0.50195312 6.60742188 C-0.34874168 4.40353414 -0.18091866 2.20175794 0 0 Z " fill="#BA8B3A" transform="translate(75,242)"/>
<path d="M0 0 C0.99 0 1.98 0 3 0 C3 0.66 3 1.32 3 2 C3.66 2.33 4.32 2.66 5 3 C6.33333333 3.66666667 7.66666667 4.33333333 9 5 C9 4.34 9 3.68 9 3 C10.32 3.33 11.64 3.66 13 4 C12.67 4.66 12.34 5.32 12 6 C6.88689982 6.08970351 2.03890228 6.0283474 -3 5 C-3.33 4.34 -3.66 3.68 -4 3 C-2.68 3 -1.36 3 0 3 C0 2.01 0 1.02 0 0 Z " fill="#E1C274" transform="translate(279,78)"/>
<path d="M0 0 C0.495 0.33 0.99 0.66 1.5 1 C5.09090894 2.43636358 8.14456127 2.12851462 12 2 C12 3.98 12 5.96 12 8 C8.70319035 7.34215037 6.15882078 6.10579427 3.25 4.4375 C2.45078125 3.98246094 1.6515625 3.52742188 0.828125 3.05859375 C0.22484375 2.70925781 -0.3784375 2.35992187 -1 2 C-0.67 1.34 -0.34 0.68 0 0 Z " fill="#D5AB5C" transform="translate(336,101)"/>
<path d="M0 0 C1.1577506 3.47325181 1.06866652 6.36067448 1 10 C0.38125 10.144375 -0.2375 10.28875 -0.875 10.4375 C-3.03258322 10.93152225 -3.03258322 10.93152225 -5 12 C-4.34 9.03 -3.68 6.06 -3 3 C-2.34 3 -1.68 3 -1 3 C-0.67 2.01 -0.34 1.02 0 0 Z " fill="#D7A146" transform="translate(318,269)"/>
<path d="M0 0 C0.66 0.33 1.32 0.66 2 1 C-3 7.57142857 -3 7.57142857 -8 9 C-8.33 7.68 -8.66 6.36 -9 5 C-7.54735962 4.1361871 -6.0876837 3.28419546 -4.625 2.4375 C-3.40683594 1.72400391 -3.40683594 1.72400391 -2.1640625 0.99609375 C-1.44992188 0.66738281 -0.73578125 0.33867188 0 0 Z " fill="#CB913D" transform="translate(160,78)"/>
<path d="M0 0 C0.33 0 0.66 0 1 0 C1.02505615 0.57967529 1.0501123 1.15935059 1.07592773 1.7565918 C1.19246234 4.40042107 1.31492682 7.04394409 1.4375 9.6875 C1.47681641 10.59951172 1.51613281 11.51152344 1.55664062 12.45117188 C1.59853516 13.33740234 1.64042969 14.22363281 1.68359375 15.13671875 C1.73858032 16.35427856 1.73858032 16.35427856 1.79467773 17.59643555 C2.01037431 20.12144485 2.45899452 22.52600697 3 25 C2.01 25.33 1.02 25.66 0 26 C0 17.42 0 8.84 0 0 Z " fill="#FEEC77" transform="translate(160,168)"/>
<path d="M0 0 C0 0.33 0 0.66 0 1 C-8.64024562 3.513526 -17.08810018 3.18417244 -26 3 C-26 2.67 -26 2.34 -26 2 C-23.16724047 1.66103732 -20.33395339 1.32870306 -17.5 1 C-16.31277344 0.85691406 -16.31277344 0.85691406 -15.1015625 0.7109375 C-10.02970596 0.12892118 -5.10506141 -0.09367085 0 0 Z " fill="#A57B43" transform="translate(288,419)"/>
<path d="M0 0 C0.33 0 0.66 0 1 0 C1.06058594 1.28777344 1.12117187 2.57554687 1.18359375 3.90234375 C1.26798247 5.58074159 1.3526313 7.25912636 1.4375 8.9375 C1.47681641 9.78763672 1.51613281 10.63777344 1.55664062 11.51367188 C1.59853516 12.32255859 1.64042969 13.13144531 1.68359375 13.96484375 C1.72025146 14.7137085 1.75690918 15.46257324 1.79467773 16.23413086 C1.81771063 18.02461326 1.81771063 18.02461326 3 19 C3.04092937 21.33297433 3.04241723 23.66705225 3 26 C0.49917097 22.24875646 -0.12433355 20.63936869 -0.09765625 16.2109375 C-0.09443359 15.26992188 -0.09121094 14.32890625 -0.08789062 13.359375 C-0.07951172 12.37453125 -0.07113281 11.3896875 -0.0625 10.375 C-0.05798828 9.38242187 -0.05347656 8.38984375 -0.04882812 7.3671875 C-0.03702145 4.9113984 -0.020554 2.45572896 0 0 Z " fill="#EDB752" transform="translate(160,302)"/>
<path d="M0 0 C1.875 0.3125 1.875 0.3125 4 1 C6 4 6 4 5.8125 6.0625 C5 8 5 8 2 10 C1.67 8.35 1.34 6.7 1 5 C1.66 5 2.32 5 3 5 C2.2575 4.319375 2.2575 4.319375 1.5 3.625 C0 2 0 2 0 0 Z " fill="#DAAC4E" transform="translate(352,223)"/>
<path d="M0 0 C0 0.66 0 1.32 0 2 C0.99 2.33 1.98 2.66 3 3 C-1.95 4.485 -1.95 4.485 -7 6 C-6.67 4.02 -6.34 2.04 -6 0 C-2.25 -1.125 -2.25 -1.125 0 0 Z " fill="#DAA449" transform="translate(186,69)"/>
<path d="M0 0 C0.33 1.32 0.66 2.64 1 4 C0.34 4 -0.32 4 -1 4 C-1 4.66 -1 5.32 -1 6 C-0.34 6 0.32 6 1 6 C1 6.66 1 7.32 1 8 C0.34 8 -0.32 8 -1 8 C-1.33 8.99 -1.66 9.98 -2 11 C-2.99 10.67 -3.98 10.34 -5 10 C-3.66511872 6.40608886 -2.03977277 3.24509304 0 0 Z " fill="#CA933A" transform="translate(304,294)"/>
<path d="M0 0 C1 2 1 2 0.328125 4.05859375 C-0.02765625 4.84363281 -0.3834375 5.62867188 -0.75 6.4375 C-1.26820313 7.61119141 -1.26820313 7.61119141 -1.796875 8.80859375 C-2.97746344 10.95895127 -4.18105555 12.37444907 -6 14 C-6.66 13.67 -7.32 13.34 -8 13 C-5.36 8.71 -2.72 4.42 0 0 Z " fill="#C29C52" transform="translate(323,258)"/>
<path d="M0 0 C3.81520418 3.28896912 5.35620209 6.32815331 7 11 C6.67 11.66 6.34 12.32 6 13 C4.98868775 11.59138651 3.99133233 10.17274547 3 8.75 C2.1646875 7.56664062 2.1646875 7.56664062 1.3125 6.359375 C0 4 0 4 0 0 Z " fill="#CCA04A" transform="translate(275,234)"/>
<path d="M0 0 C3 0 3 0 5.5 2.3125 C6.325 3.199375 7.15 4.08625 8 5 C8.598125 5.598125 9.19625 6.19625 9.8125 6.8125 C10.204375 7.204375 10.59625 7.59625 11 8 C10.67 8.66 10.34 9.32 10 10 C8.32756598 8.71580959 6.66218553 7.42242815 5 6.125 C3.6078125 5.04605469 3.6078125 5.04605469 2.1875 3.9453125 C1.465625 3.30335937 0.74375 2.66140625 0 2 C0 1.34 0 0.68 0 0 Z " fill="#C9A35A" transform="translate(349,109)"/>
<path d="M0 0 C0.33 0.66 0.66 1.32 1 2 C-1 5 -1 5 -4 5.625 C-4.99 5.74875 -5.98 5.8725 -7 6 C-7.99 6.495 -7.99 6.495 -9 7 C-9.33 6.01 -9.66 5.02 -10 4 C-6.7 2.68 -3.4 1.36 0 0 Z " fill="#A77739" transform="translate(321,406)"/>
<path d="M0 0 C2.64 0.66 5.28 1.32 8 2 C5.3144406 4.6855594 2.62378672 5.06049974 -1 6 C-0.67 4.02 -0.34 2.04 0 0 Z " fill="#DAA44C" transform="translate(170,73)"/>
<path d="M0 0 C0 0.99 0 1.98 0 3 C-0.66 3 -1.32 3 -2 3 C-2 3.66 -2 4.32 -2 5 C-3.65 5 -5.3 5 -7 5 C-7.33 4.01 -7.66 3.02 -8 2 C-2.25 0 -2.25 0 0 0 Z " fill="#CE933C" transform="translate(180,70)"/>
<path d="M0 0 C2.40072955 2.88087546 4.47291037 5.56404834 6 9 C4.68 9 3.36 9 2 9 C2 8.01 2 7.02 2 6 C1.34 6 0.68 6 0 6 C0 4.02 0 2.04 0 0 Z " fill="#9E6423" transform="translate(101,340)"/>
<path d="M0 0 C1 2 1 2 0.44140625 4.1640625 C0.15136719 4.97617187 -0.13867188 5.78828125 -0.4375 6.625 C-0.72496094 7.44226563 -1.01242187 8.25953125 -1.30859375 9.1015625 C-1.53675781 9.72804688 -1.76492188 10.35453125 -2 11 C-2.33 10.34 -2.66 9.68 -3 9 C-3.66 8.67 -4.32 8.34 -5 8 C-3.35 5.36 -1.7 2.72 0 0 Z " fill="#CCA251" transform="translate(314,273)"/>
<path d="M0 0 C0.66 0.33 1.32 0.66 2 1 C-0.475 4.465 -0.475 4.465 -3 8 C-3.66 7.34 -4.32 6.68 -5 6 C-4.875 4 -4.875 4 -4 2 C-2.0625 0.6875 -2.0625 0.6875 0 0 Z " fill="#E4C16D" transform="translate(100,163)"/>
<path d="M0 0 C2.31 0 4.62 0 7 0 C7 0.99 7 1.98 7 3 C5.824375 2.9690625 5.824375 2.9690625 4.625 2.9375 C2.01885039 2.81315937 2.01885039 2.81315937 0 4 C-0.99 3.34 -1.98 2.68 -3 2 C-2.01 2 -1.02 2 0 2 C0 1.34 0 0.68 0 0 Z " fill="#D79C46" transform="translate(307,67)"/>
<path d="M0 0 C1.95216435 3.90432869 2.50639991 6.72213252 3 11 C2.01 11 1.02 11 0 11 C0 7.37 0 3.74 0 0 Z " fill="#D1993C" transform="translate(230,328)"/>
<path d="M0 0 C0.66 0.33 1.32 0.66 2 1 C0.12050295 4.57104439 -1.17053157 6.54744301 -5 8 C-5.66 7.34 -6.32 6.68 -7 6 C-4.69 4.02 -2.38 2.04 0 0 Z " fill="#363021" transform="translate(142,117)"/>
<path d="M0 0 C2.86724686 0.57344937 3.8614515 0.8614515 6 3 C4.02 3.99 2.04 4.98 0 6 C0 4.02 0 2.04 0 0 Z " fill="#D8A24B" transform="translate(148,85)"/>
<path d="M0 0 C0 3 0 3 -1 6 C-0.34 6 0.32 6 1 6 C1 6.99 1 7.98 1 9 C-0.32 9 -1.64 9 -3 9 C-2.25 2.25 -2.25 2.25 0 0 Z " fill="#AC732E" transform="translate(425,322)"/>
<path d="M0 0 C0.66 0 1.32 0 2 0 C1.35455571 3.48539917 -0.10134397 6.02819057 -2 9 C-2.6875 7.3125 -2.6875 7.3125 -3 5 C-1.6875 2.25 -1.6875 2.25 0 0 Z " fill="#E3B661" transform="translate(303,291)"/>
<path d="M0 0 C2 2 2 2 2 5 C2.66 5 3.32 5 4 5 C4.33 4.34 4.66 3.68 5 3 C5.33 3.99 5.66 4.98 6 6 C5.34 6 4.68 6 4 6 C3.67 6.99 3.34 7.98 3 9 C0.9375 6.1875 0.9375 6.1875 -1 3 C-0.67 2.01 -0.34 1.02 0 0 Z " fill="#292219" transform="translate(345,203)"/>
<path d="M0 0 C4.29 0 8.58 0 13 0 C13.66 1.32 14.32 2.64 15 4 C14.45859375 3.68289062 13.9171875 3.36578125 13.359375 3.0390625 C10.5842851 1.81692026 8.26791902 1.59056564 5.25 1.375 C3.77273438 1.26285156 3.77273438 1.26285156 2.265625 1.1484375 C1.51796875 1.09945312 0.7703125 1.05046875 0 1 C0 0.67 0 0.34 0 0 Z " fill="#D6AB4E" transform="translate(305,162)"/>
<path d="M0 0 C0.99 0.33 1.98 0.66 3 1 C3 1.66 3 2.32 3 3 C2.34 3 1.68 3 1 3 C0.67 5.31 0.34 7.62 0 10 C-1.125 8.375 -1.125 8.375 -2 6 C-1.125 2.75 -1.125 2.75 0 0 Z " fill="#C7923B" transform="translate(361,257)"/>
<path d="M0 0 C0.66 0.33 1.32 0.66 2 1 C0.35 3.64 -1.3 6.28 -3 9 C-3.66 8.34 -4.32 7.68 -5 7 C-5 6.01 -5 5.02 -5 4 C-4.01 3.67 -3.02 3.34 -2 3 C-1.34 2.01 -0.68 1.02 0 0 Z " fill="#EAB551" transform="translate(278,252)"/>
<path d="M0 0 C0.99 0 1.98 0 3 0 C3 0.66 3 1.32 3 2 C3.66 2.33 4.32 2.66 5 3 C4 4 4 4 2.15234375 4.09765625 C0.1015625 4.06510417 -1.94921875 4.03255208 -4 4 C-2.68 3.67 -1.36 3.34 0 3 C0 2.01 0 1.02 0 0 Z " fill="#FDD877" transform="translate(279,78)"/>
<path d="M0 0 C2.96865509 2.54456151 4.3619751 5.48994665 6 9 C4.68 8.67 3.36 8.34 2 8 C1.34 5.36 0.68 2.72 0 0 Z " fill="#C6A050" transform="translate(349,214)"/>
<path d="M0 0 C1.64826111 2.96687001 2.44271087 5.65626525 3 9 C0.27573689 6.64722731 -0.8141763 4.37503669 -2 1 C-1.34 0.67 -0.68 0.34 0 0 Z " fill="#F5BE58" transform="translate(316,219)"/>
</svg>
